<svg enable-background="new 0 0 200 200" viewBox="0 0 200 200" xmlns="http://www.w3.org/2000/svg"><path d="m154.8 124.8c-1-.1-2.7-1.3-2.7-1.3l-1-.6s-1.9.3-2.5 2 0 1.8.5 3.8c.3 1 .7 1.6 1 2l-.3.4-.7 3c1.7 1.3 2.5 1.3 2.7 1.2h.1c0-2.1 1-4.4 1-4.4 3.5-.9 2.3-5 2.3-5 .1-.2.5-1.1-.4-1.1z" fill="#ffbeb6"/><path d="m166.4 140.5c-1.4-1.9-1.4-1-1.4-1 .4 1.1.6 2.1.5 2.3 0 .3-.3-.6-.6-1.6s-1.3-1-1-.4.2 2 .7 3.2.5 1.5-.4 2.9c-1.2 2-4.6 3.1-4.6 3.1l1.9 6.7c3.2-2.3 5.7-9.9 6-11.1s.3-2.2-1.1-4.1z" fill="#ffbeb6"/><path d="m155.5 86-66.4-38.3c-8.4-4.8-19.2-2-24 6.4-4.9 8.4-2 19.1 6.4 24l66.5 38.3c8.4 4.8 19.2 2 24-6.4s2-19.2-6.5-24z" fill="#01beff"/><path d="m153.4 122.2c-.5.1-.8.7-.5 1.3 0 .1.1.1.1.2-.3.1-.5.4-.5.7 0 0-.1-.1-.1-.1-.3-.2-.6-.3-.9-.3-.6.1-.9.8-.6 1.5.1.4.3.7.6.9.2.2.5.3.7.3h.2c.3 0 .5-.3.6-.5.1-.3.1-.7 0-1s-.2-.5-.4-.7c.1-.3.2-.6.5-.7.2.2.4.3.6.4.1 0 .2.1.3.1h.1.1c.5-.1.8-.7.5-1.3-.2-.4-.8-.8-1.3-.8zm-.7 3.1c.1.3.1.6 0 .9-.1.2-.3.4-.5.4-.3 0-.5-.1-.8-.2-.3-.2-.5-.5-.6-.8-.2-.7 0-1.3.5-1.3h.2c.2 0 .4.1.6.3.3.1.5.4.6.7zm1.4-.9c-.4.1-.9-.3-1.1-.9s0-1.1.4-1.1c.4-.1.9.3 1.1.9s0 1.1-.4 1.1z" fill="#01beff"/><g fill="#1c1c1c"><path d="m170.2 160.1c-2.6-1.1-5.1-3.4-5.1-3.4h-4.7l-2.2 6.1h15.3c.1-.1-.7-1.6-3.3-2.7z"/><path d="m164.5 156.1c-.6-5.5.9-13.7.5-17.2 0-.7-.2-1.4-.3-2-.7-2.3-4-2.3-4-2.3h-.1c-.1 0-.1 0-.1 0-1.4.2-3 2.2-3.6 3.7-1.3 3.2-6.3 14.7-6.5 14.8s-6.4 1-6.4 1-.6 7.5 4.8 8.3c5.1.8 11.1 1.7 13.3-12.9z"/><path d="m144.4 131.9c.1.8 0 1.4-.1 2.2s-.1 1.6.5 2.3c.1.1.2-.1.1-.1-1-1-.3-2.3-.2-3.5.1.3.1.7 0 1-.1.9 0 1.8.4 2.5 4.5-.5 7.3-3.9 7.3-3.9-1.3-1.1-2.1-1.9-2.3-2.9.4 1.3 1.5 2.2 2.8 2.5.1 0 .1-.1 0-.2-1.6-.3-2.8-1.7-2.9-3.4.1-.6.3-1.2.6-1.7 1.2-2.6.1-3.8.1-3.8.7.1 1.9.9 1.9.9-2.1-3.2-5.4-1.7-7.7.1-2.2 1.7-2 4.6-1.7 5.3.4.7.7 1.4 1 2.2.1.2.2.3.2.5z"/></g><path d="m52.7 164.8 28.1-53-70 3.4z" fill="#6d7881"/><path d="m145.1 136.3c-.8.9-1.5 1.9-2.1 2.9-1.8 3.2-2.3 6.6-3.3 8.8-2 4.4-2.6 8.2-.1 10.2 0 0 4.2 1.8 13.2-4 2.2.6 3.9-.2 4.8-.8 1.4-1 2.4-2.1 5.6-1.7 2.9.3-.9-4.2-.9-4.2l.1-5.9c-1.3.8-2.7 1.4-4.1 1.7-1.6.3-3.2-.1-4.1-.9-1-.9-1.9-2.5-2.7-4.1l-.5-2.9c-.2-.1-.5-.2-.7-.3-.3-.1-.3-.1-.3-.1l-4 1" fill="#6d7881"/><path d="m105.3 102.4c-17.2 0-31.2 14-31.2 31.1 0 17.2 14 31.1 31.2 31.1s31.2-14 31.2-31.1c0-17.2-14-31.1-31.2-31.1zm0 60.2c-16.1 0-29.2-13.1-29.2-29.1 0-16.1 13.1-29.1 29.2-29.1s29.2 13.1 29.2 29.1c0 16.1-13.1 29.1-29.2 29.1z" fill="#9ca6ad"/><path d="m121.6 33.9-.3 1.1c-2.4 9.1-1.2 18.7 3.4 27 4.8 8.6 12.6 14.9 22.1 17.7 3.4 1 6.8 1.5 10.3 1.5 5.2 0 10.4-1.1 15.2-3.2 7.6-3.4 13.9-9.4 17.8-16.8l.5-1zm49.9 42.2c-7.6 3.4-16.1 4-24.1 1.7-9-2.6-16.4-8.5-20.9-16.7-4.1-7.5-5.4-16.2-3.5-24.5l64.8 24.5c-3.7 6.6-9.4 11.9-16.3 15z" fill="#9ca6ad"/><path d="m157.5 147.7c-1.7-.1-3-.9-3.7-1.9-2.1-2.8-2-10.5-2-10.5s-.6.3-2.1-.8l-3.7 1.5c-3.9 6.7-1.9 13.6.4 17.7 2.6 4.7 6.4 4.3 7.9 3.7s2.8-1.4 5.9-.3c2.8 1 5.8-.7 5.8-.7l-4.1-9.3c-1.4.5-2.9.7-4.4.6z" fill="#9ca6ad"/></svg>