<svg xmlns="http://www.w3.org/2000/svg" xmlns:xlink="http://www.w3.org/1999/xlink" viewBox="0 0 150 150">
    <defs>
        <linearGradient id="a" x1="-410.202" y1="1233.719" x2="-409.989" y2="1234.171" gradientTransform="matrix(11 0 0 20 4598 -24612)" gradientUnits="userSpaceOnUse">
            <stop offset="0" stop-color="#ffbeb6"/>
            <stop offset="1" stop-color="#f2a19c"/>
        </linearGradient>
        <linearGradient id="b" x1="-387.841" y1="1423.255" x2="-387.699" y2="1421.896" gradientTransform="matrix(4.225 0 0 6.299 1739.645 -8898.802)" xlink:href="#a"/>
        <linearGradient id="c" x1="-491.319" y1="1264.085" x2="-491.1" y2="1264.532" gradientTransform="matrix(10.854 0 0 19.898 5412.024 -25089.885)" xlink:href="#a"/>
    </defs>
    <circle cx="75" cy="75" r="75" fill="#eaecee"/>
    <path d="M85.339 139.239L83.7 126.653h32.39l1.739 9.949q.651-.453 1.291-.917l-3.673-20.946-.1-.6h-37.4l-3.482 35.846c.195 0 .387.015.583.015.293 0 .581-.019.874-.022l3.325-34.44h1.483l4.41 33.767c.5-.066.994-.12 1.486-.2l-1.092-8.372h25.644c.879-.484 1.751-.98 2.608-1.5zm-3.092-23.7h31.9l1.843 10.541-.185-.925H83.5z" fill="#aeb5bb"/>
    <path d="M90.046 66.092l-3.9 4a20.176 20.176 0 0 0-4.6-9.79c-3.6-4.5-2.8-6.792-.9-8.89 1.9-2.2 2.2-1.2 2.6.6s1.2 4.2 2.1 4.694c.8.5 1.1-1.4 2.3-1.9s1.4.3 1 .7a16.8 16.8 0 0 0-2.4 2.9c-.7 1.1-.9 1.3.5 3.4a34.921 34.921 0 0 0 3.3 4.286z" fill="url(#a)"/>
    <path d="M102.145 64.094s1.6 2-1.8 4c-3.5 2-4.4 1.6-6.9-1a24.8 24.8 0 0 1-2.9-3.3l-9.3 9.789s1.1 3.8 4.7 4.8 4.7 1.6 6 3c1.4 1.4 4.8 4.1 10.7 3 9-1.7 8.6-17.181 2.4-23.574l7.5-4.4" fill="#4d5b67"/>
    <path d="M87.846 18.045L22.953 51.708l68.793 38.957z" fill="#1475dc"/>
    <path d="M111.144 139.711h-24.4s1.3-2.3 5.4-4.095a37.522 37.522 0 0 0 8.1-5.294h7.5z" fill="#4d5b67"/>
    <path d="M97.11 80.976s-3.6 10.488-5.6 15.483c-2 5.194-2.5 7.891.7 14.983 2.6 5.494 8.1 18.979 8.1 18.979h6.9a20.3 20.3 0 0 0-.5-9.489c-1.6-4.8-2.7-4.2-3.1-7.692s-4.4-5.893-1.8-11.787 6.9-4.894 11.2-20.877z" fill="#061526"/>
    <path d="M107.425 142.663c-2.334-5.157-11.754-26.2-12.279-30.921a70.566 70.566 0 0 1 .7-17.181c.1-.6.6-8.691.7-9.29a51.451 51.451 0 0 1 6.8-.1c.4 0 4.6 0 5.8-.1a32.512 32.512 0 0 0 3.3-.2 32.007 32.007 0 0 1-2.3 10.889c-4.6 12.386-1.1 14.184.3 17.88 1.5 3.8 2.3 5.993 1.9 9.589-.3 3.5 1.4 2.6 2.3 7.192a71.753 71.753 0 0 1 .888 7.719 76.7 76.7 0 0 1-8.109 4.523z" fill="#1f2c3c"/>
    <path d="M99.745 58.9a17.248 17.248 0 0 1-.6 5.993 20.777 20.777 0 0 1 3.6-3.3l.7-3-3.7.1z" fill="url(#b)"/>
    <path d="M104.645 57.6a2.67 2.67 0 0 0-1.8 1.8h-.8c-7.1-.7-5.5-6.892-5.5-6.892-.6-1.5-.6-1.8 1.2-1.9 1.3 0 3.5-1.8 3.5-1.8.1 0 .1-.1.2-.1a9.764 9.764 0 0 0 .9 4.1c1 2.4 1.6 2.6 2.5 2.6a1.125 1.125 0 0 1-.2 2.192z" fill="#ffbeb6"/>
    <path d="M114.944 91.864s-9 4.095-20.8-8.391l5-18.58a19.136 19.136 0 0 1 3.5-3.3v-.2a10.756 10.756 0 0 1 1.1-.9 27.188 27.188 0 0 1 7.4 8.791c3.1 5.693 2 7.691 3.6 11.087 1.699 3.402 4.099 7.497.2 11.493z" fill="#4d5b67"/>
    <path d="M83.247 67.291l-3.8 3.9a21.418 21.418 0 0 0-4.5-9.79c-3.6-4.495-2.8-6.692-.9-8.89 1.8-2.2 2.1-1.2 2.5.6s1.2 4.2 2.1 4.7c.8.5 1.1-1.3 2.3-1.8s1.4.3 1 .7a20.913 20.913 0 0 0-2.4 2.8c-.7 1.1-.9 1.3.5 3.4a44.831 44.831 0 0 0 3.2 4.38z" fill="url(#c)"/>
    <path d="M96.445 86.67a11.662 11.662 0 0 1-10.8-3c-1.4-1.4-2.5-2-6.1-3a7.911 7.911 0 0 1-4.9-4.595l9.4-9.589a22.407 22.407 0 0 0 2.9 3.2c2.5 2.5 3.5 2.9 7 1a13.48 13.48 0 0 0 5.2-5.694l2-2.1c.5-.4.9-.8 1.5-1.2l-.1-.3 3.2-3.3c6.399 6.302-.3 26.979-9.3 28.578z" fill="#6d7881"/>
    <ellipse cx="112.544" cy="50.409" rx="3.3" ry="3.196" fill="#344554"/>
    <path d="M97.745 54.405a1.233 1.233 0 0 1-1.7-.3 1.849 1.849 0 0 1-.2-.7.15.15 0 0 1 .3 0 .986.986 0 0 0 .9 1 1.268 1.268 0 0 0 .6-.1c.1-.2.3 0 .1.1z" fill="#6d7881"/>
    <path d="M118.043 64.194c-1.2-1.4-3.1-1.9-4.4-3a6.408 6.408 0 0 1-.8-.9c0-.1-.1-.1-.1-.2-.8-1.2-.7-2.3-.8-4.495a5.646 5.646 0 0 0-.3-1.8 3.917 3.917 0 0 0 4-.8c.1-.1-.1-.3-.2-.2a3.718 3.718 0 0 1-3.9.6 9.516 9.516 0 0 0-10.2-5.294 11.66 11.66 0 0 0 .9 4.795c1 2.4 1.6 2.6 2.5 2.6a1.056 1.056 0 0 1-.1 2.1c-1 .2-2.2 1.7-2.1 3.5v.3c.1 2.9 4.3 6.193 1.2 8.691-.1.1.1.3.2.2a3.056 3.056 0 0 0 1.1-3.2 13.4 13.4 0 0 0-1.2-3c.1.1.1.2.2.2a5.7 5.7 0 0 1 1.3 6.293s7.7 2.2 12.9-1.2c0 0 1.5-3.2-2.5-6.193-.4-.3-.7-.5-1-.7a9.918 9.918 0 0 1 1.4.8 6.129 6.129 0 0 1 3.1 5.794c0 .2.2.2.2 0a6.367 6.367 0 0 0-1.4-4.891z" fill="#344554"/>
</svg>
