<svg xmlns="http://www.w3.org/2000/svg" viewBox="0 0 145 30"><path d="M70.229 18.129a2.888 2.888 0 01-5.509-1.312 3.743 3.743 0 013.506-4 2.669 2.669 0 012.836 1.979h3.309c.2-1.237-.783-5.021-6.017-5.021a6.924 6.924 0 00-6.9 6.95v.2a5.57 5.57 0 005.964 5.926 6.064 6.064 0 006.291-4.718zm-25.384.922a7.284 7.284 0 01.222-1.327c.164-.77 2.5-11.541 2.5-11.541h-3.104l-2.575 11.88a6.847 6.847 0 00-.156 1.427c0 2.606 2.016 3.372 3.628 3.372a8.549 8.549 0 001.247-.112c.051-.261.538-2.5.563-2.6-.07 0-.412.031-.809.031-1.156.006-1.516-.481-1.516-1.13zm44.087-9.237H84.6l-5.56 5.011 1.875-8.667h-3.127L74.238 22.6h3.124l.863-3.995 1.923-1.532 2.657 5.527h3.478l-3.771-7.4zm-61.151 7.7c.26-1.179 2.462-11.357 2.462-11.357h5.915c4.292 0 5.348 2.387 5.348 3.835a4.408 4.408 0 01-3.4 4.168 3.458 3.458 0 012.307 3.407c0 2.737-2.522 5.031-6.432 5.031H32.2c-3.278.002-5.045-2.25-4.419-5.079zm9.261-.2c0-.773-.5-1.75-2.706-1.75h-2.868l-.856 3.974h3.247c2.098.003 3.183-.944 3.183-2.221zm1.064-6.625c0-.8-.608-1.488-2.1-1.488h-3.164l-.717 3.32h3.3c1.777 0 2.683-.859 2.683-1.833zm49.4 6.827c.262-1.176 2.464-11.354 2.464-11.354h5.917c4.292 0 5.348 2.387 5.348 3.835a4.408 4.408 0 01-3.395 4.168 3.466 3.466 0 012.308 3.407c0 2.737-2.525 5.031-6.435 5.031H91.93c-3.286-.003-5.049-2.255-4.423-5.084zm9.262-.2c0-.773-.5-1.75-2.705-1.75h-2.87l-.86 3.974h3.249c2.1 0 3.185-.947 3.185-2.224zm1.064-6.625c0-.8-.606-1.488-2.1-1.488H92.57l-.716 3.32h3.3c1.773 0 2.68-.859 2.68-1.833zm24.867-.87c-3.313 0-5.565 1.961-6.323 5.642-.327 1.582-1.528 7.144-1.528 7.144h3.1l1.5-6.95c.474-2.179 1.628-2.919 3.173-2.919a6.1 6.1 0 01.982.08c.085-.437.517-2.405.621-2.886a11.164 11.164 0 00-1.524-.11zM133.256 27.5l10.412-17.678h-3.351l-4.784 8.32-1.118-8.329h-3.586c-4.106 0-6.234 1.878-6.989 5.474a1626.42 1626.42 0 01-1.581 7.322h3.1s1.139-5.25 1.592-7.369a2.8 2.8 0 013.608-2.335l.653-3.018c.485 2.866 1.966 12.024 1.966 12.024l-3.246 5.589zM53.807 17.155c.683-.1 2.681-.41 2.954-.448-.051.213-.131.554-.187.806a3.615 3.615 0 01-3.674 2.539c-1.108 0-1.753-.6-1.753-1.3-.002-.589.534-1.283 2.66-1.597zm-1.159-3.33a3.263 3.263 0 012.864-1.359c1.237 0 1.87.452 1.87 1 0 .771-1.246.972-3.405 1.281-3.71.536-6.054 1.687-6.054 4.369 0 1.9 1.577 3.75 4.377 3.75a4.927 4.927 0 003.65-1.513c.011.338.055.843.09 1.25h3.207a7.3 7.3 0 01.041-3.322c.2-.9.768-3.475 1.056-4.9.549-2.691-.927-4.593-4.709-4.593a6.535 6.535 0 00-6.491 4.036zm57.634 4.946a2.808 2.808 0 01-2.555 1.3 2.727 2.727 0 01-2.921-2.52q0-.052-.006-.1h9.465a8.669 8.669 0 00.268-1.937c0-3-2.03-5.735-6.123-5.735a6.849 6.849 0 00-6.744 6.886c0 3.618 2.171 6.188 6.009 6.188a6.165 6.165 0 006.147-4.078zm-1.839-6.158c2.089 0 2.888 1.276 2.8 2.3h-5.977a3.341 3.341 0 013.177-2.3zM8.147 4.286c0-.786-.483-1.786-2.514-1.786H2.515l-.888 4.108h3.255c2.541 0 3.265-1.203 3.265-2.322zm8.411 0c0-.786-.482-1.786-2.509-1.786h-3.123l-.887 4.108H13.3c2.538 0 3.258-1.203 3.258-2.322zM7.02 10.469c0-.788-.483-1.788-2.51-1.788H1.388L.5 12.791h3.255c2.545 0 3.265-1.206 3.265-2.322zm8.411 0c0-.788-.484-1.788-2.509-1.788H9.8l-.889 4.111h3.255c2.545-.001 3.265-1.207 3.265-2.323zm8.8-2.508c0-.788-.484-1.788-2.509-1.788H18.6l-.889 4.11h3.255c2.541.001 3.265-1.203 3.265-2.322zM23.017 14.4c0-.788-.482-1.786-2.509-1.786h-3.122l-.886 4.108h3.255c2.545 0 3.262-1.206 3.262-2.322zm-8.795 2.509c0-.792-.481-1.792-2.507-1.792H8.591l-.891 4.11h3.255c2.545 0 3.267-1.204 3.267-2.319zm128.61 2.334a1.672 1.672 0 11-.007 0zm-.007.262a1.348 1.348 0 10.007 0zm-.313 2.4h-.3v-1.878a3.49 3.49 0 01.531-.044.984.984 0 01.583.142.452.452 0 01.173.389.468.468 0 01-.367.457v.015c.164.03.276.179.313.456a1.555 1.555 0 00.12.465h-.313a1.381 1.381 0 01-.125-.479.351.351 0 00-.368-.333h-.245zm0-1.04h.216c.248 0 .457-.09.457-.322 0-.164-.12-.328-.457-.328a1.425 1.425 0 00-.216.014z"/></svg>