<svg xmlns="http://www.w3.org/2000/svg">
  <path
    d="M19.892 1.865L15.568.82v7.616a3.76 3.76 0 01-.751 2.06l-1.504 1.805-.534-.654 1.293-1.587a3.113 3.113 0 00.617-1.631V.609L12.38.045A2.203 2.203 0 0011.922 0a2.21 2.21 0 00-.466.053L9.2.6v7.52a2.902 2.902 0 00.564 1.503l5.646 6.835a3.91 3.91 0 01.828 2.195v2.94l4.42-2.91a2.105 2.105 0 00.986-1.774V3.94a2.128 2.128 0 00-1.737-2.075"
    class="cls-2"
  />
  <path
    d="M14.08 17.12l-5.647-6.834a3.91 3.91 0 01-.827-2.196V.977l-3.67.888A2.128 2.128 0 002.2 3.94v12.932a2.105 2.105 0 00.985 1.775l4.459 2.94v-3.008a3.76 3.76 0 01.751-2.06l1.985-2.406.534.646-1.767 2.233c-.42.512-.616 1.452-.616 2.955v2.256l2.135 1.406a2.173 2.173 0 001.24.39 2.173 2.173 0 001.241-.39l1.504-.977v-3.985a2.902 2.902 0 00-.564-1.504"
    class="cls-2"
  />
</svg>
