<svg xmlns="http://www.w3.org/2000/svg" viewBox="0 0 221 94"><defs><style>.cls-1{fill:#babbc0;}</style></defs><title>404</title><g id="Layer_2" data-name="Layer 2"><g id="Layer_1-2" data-name="Layer 1"><g id="Page-1"><g id="_404-Page" data-name="404-Page"><path id="_404" data-name="404" class="cls-1" d="M44.17,92.62V74.82H0V66.53l26-65h11.6L11.18,65.43h33V37H54.8V65.43H66.4v9.39H54.8V92.62ZM110.29,0q11.32,0,18.36,4.28,14.91,8.83,14.91,44.17,0,25-8.28,35.27T110.43,94Q93.87,94,85.52,83.86T77.16,47.69q0-26,8.21-36.86T110.29,0Zm.14,9.52q-7.87,0-12.42,3.31-9.8,6.76-9.8,35.75,0,20.43,5.38,28.23t16.84,7.8q11.46,0,16.84-7.87t5.38-29.2q0-21.33-5.18-29.68T110.43,9.52Zm88.34,83.1V74.82H154.6V66.53l26-65h11.6L165.78,65.43h33V37H209.4V65.43H221v9.39H209.4V92.62Z"/></g></g></g></g></svg>