<svg xmlns="http://www.w3.org/2000/svg" viewBox="0 0 192 48">
	<path d="M12.042 35.958A10.912 10.912 0 0017.93 39l2.318-2.319a10.209 10.209 0 002.189-11.118 10.209 10.209 0 00-11.118 2.189L9 30.07a10.912 10.912 0 003.042 5.888z" fill="#f78330"/>
	<path d="M35.958 35.958A10.912 10.912 0 0039 30.07l-2.319-2.318a10.209 10.209 0 00-11.118-2.189 10.209 10.209 0 002.189 11.118L30.07 39a10.912 10.912 0 005.888-3.042zM12.042 12.042A10.912 10.912 0 009 17.93l2.319 2.318a10.209 10.209 0 0011.118 2.189 10.209 10.209 0 00-2.189-11.118L17.93 9a10.912 10.912 0 00-5.888 3.042zm23.916 0A10.912 10.912 0 0030.07 9l-2.318 2.319a10.209 10.209 0 00-2.189 11.118 10.209 10.209 0 0011.118-2.189L39 17.93a10.912 10.912 0 00-3.042-5.888z" fill="#fff"/>
	<path d="M46.245 21.432v-8.817h3.088a4.06 4.06 0 012.435.615 2.104 2.104 0 01.829 1.801 1.993 1.993 0 01-.333 1.142 1.924 1.924 0 01-.93.724 1.865 1.865 0 011.07.683 2.025 2.025 0 01.387 1.26 2.325 2.325 0 01-.812 1.926 3.654 3.654 0 01-2.313.666zm1.817-5.123h1.344q1.374-.025 1.374-1.096a1.008 1.008 0 00-.348-.859 1.83 1.83 0 00-1.099-.263h-1.271zm0 1.284v2.38h1.555a1.502 1.502 0 001.003-.306 1.048 1.048 0 00.36-.845 1.108 1.108 0 00-1.253-1.23zm7.693 2.38h3.858v1.459h-5.674v-8.817h1.816zm9.947-.357h-3.185l-.606 1.816h-1.932l3.283-8.817h1.683l3.3 8.817h-1.931zm-2.695-1.473h2.204l-1.108-3.3zm12.452.351a3.121 3.121 0 01-1.047 2.242 3.693 3.693 0 01-2.498.818 3.318 3.318 0 01-2.667-1.142 4.68 4.68 0 01-.972-3.134v-.543a5.279 5.279 0 01.448-2.24 3.356 3.356 0 011.28-1.487 4.002 4.002 0 014.393.3 3.353 3.353 0 011.079 2.295h-1.82a1.842 1.842 0 00-.475-1.24 1.761 1.761 0 00-1.245-.388 1.544 1.544 0 00-1.36.651 3.643 3.643 0 00-.465 2.02v.666a3.908 3.908 0 00.433 2.093 1.515 1.515 0 001.365.66 1.793 1.793 0 001.257-.388 1.738 1.738 0 00.476-1.19zm3.715-.599l-.945 1.017v2.52h-1.817v-8.817h1.817v3.996l.799-1.094 2.248-2.9h2.234l-3.13 3.916 3.223 4.899h-2.165zm4.987 3.536v-8.816h3.088a4.06 4.06 0 012.433.615 2.102 2.102 0 01.83 1.801 1.994 1.994 0 01-.333 1.142 1.922 1.922 0 01-.93.724 1.86 1.86 0 011.068.683 2.025 2.025 0 01.387 1.26 2.325 2.325 0 01-.811 1.926 3.652 3.652 0 01-2.313.666zm1.817-5.123h1.344q1.375-.024 1.375-1.096a1.012 1.012 0 00-.348-.858 1.832 1.832 0 00-1.1-.263h-1.271zm0 1.284v2.38h1.556a1.502 1.502 0 001.002-.306 1.05 1.05 0 00.36-.845 1.108 1.108 0 00-1.254-1.229zm11.278.019h-3.488v2.36h4.094v1.46h-5.91v-8.816h5.897v1.473h-4.08v2.101h3.487zm4.811.593h-1.447v3.227h-1.817v-8.816h3.276a3.706 3.706 0 012.41.698 2.403 2.403 0 01.85 1.967 2.713 2.713 0 01-.387 1.504 2.657 2.657 0 01-1.185.96l1.908 3.603v.085h-1.954zm-1.447-1.473h1.464a1.501 1.501 0 001.06-.348 1.24 1.24 0 00.375-.96 1.333 1.333 0 00-.354-.981 1.473 1.473 0 00-1.085-.357h-1.46zm9.16 1.473h-1.447v3.227h-1.816v-8.816h3.275a3.706 3.706 0 012.411.698 2.403 2.403 0 01.847 1.968 2.713 2.713 0 01-.387 1.504 2.655 2.655 0 01-1.184.96l1.908 3.603v.085h-1.954zm-1.447-1.473h1.466a1.501 1.501 0 001.06-.348 1.246 1.246 0 00.375-.96 1.333 1.333 0 00-.354-.981 1.473 1.473 0 00-1.085-.357h-1.462zm8.704-.146l1.834-3.972h1.987l-2.894 5.62v3.197h-1.85v-3.195l-2.896-5.62h1.996zm9.342 1.738v3.107h-1.817v-8.815h3.44a3.976 3.976 0 011.747.363 2.684 2.684 0 011.163 1.033 2.887 2.887 0 01.405 1.523 2.533 2.533 0 01-.886 2.044 3.697 3.697 0 01-2.456.747zm0-1.473h1.623a1.6 1.6 0 001.1-.339 1.236 1.236 0 00.378-.968 1.455 1.455 0 00-.382-1.048 1.424 1.424 0 00-1.054-.412h-1.665zm11.247.757h-3.488v2.361h4.093v1.46h-5.91v-8.813h5.899v1.473h-4.082v2.101h3.488zm4.811.593h-1.447v3.228h-1.817v-8.813h3.277a3.704 3.704 0 012.41.698 2.403 2.403 0 01.848 1.968 2.713 2.713 0 01-.388 1.504 2.659 2.659 0 01-1.184.96l1.907 3.603v.085h-1.95zm-1.447-1.472h1.465a1.505 1.505 0 001.06-.348 1.245 1.245 0 00.376-.96 1.33 1.33 0 00-.355-.981 1.473 1.473 0 00-1.085-.358h-1.46zm10.41 2.386a.934.934 0 00-.363-.791 4.817 4.817 0 00-1.308-.581 9.237 9.237 0 01-1.496-.603 2.443 2.443 0 01-1.502-2.186 2.132 2.132 0 01.403-1.275 2.635 2.635 0 011.157-.875 4.362 4.362 0 011.695-.309 3.966 3.966 0 011.684.342 2.683 2.683 0 011.148.966 2.528 2.528 0 01.408 1.417h-1.817a1.189 1.189 0 00-.381-.941 1.569 1.569 0 00-1.072-.337 1.677 1.677 0 00-1.036.282.891.891 0 00-.369.742.853.853 0 00.433.72 4.87 4.87 0 001.275.543 5.528 5.528 0 012.259 1.156 2.306 2.306 0 01.708 1.72 2.122 2.122 0 01-.866 1.796 3.79 3.79 0 01-2.331.651 4.508 4.508 0 01-1.854-.373 2.935 2.935 0 01-1.274-1.02 2.612 2.612 0 01-.44-1.502h1.82q0 1.459 1.744 1.46a1.696 1.696 0 001.011-.264.857.857 0 00.364-.733zm10.17-1.892a5.331 5.331 0 01-.46 2.283 3.46 3.46 0 01-1.317 1.514 3.889 3.889 0 01-3.92.006 3.499 3.499 0 01-1.333-1.505 5.166 5.166 0 01-.478-2.248v-.437a5.3 5.3 0 01.469-2.292 3.496 3.496 0 011.326-1.52 3.885 3.885 0 013.918 0 3.488 3.488 0 011.326 1.52 5.284 5.284 0 01.47 2.285zm-1.84-.4a3.714 3.714 0 00-.497-2.107 1.756 1.756 0 00-2.828-.01 3.677 3.677 0 00-.502 2.087v.43a3.759 3.759 0 00.497 2.093 1.739 1.739 0 002.833.027 3.726 3.726 0 00.496-2.093zm10.13 4.608h-1.814l-3.536-5.8v5.8h-1.817v-8.815h1.817l3.542 5.813v-5.813h1.81zm6.382-1.816h-3.185l-.606 1.816h-1.932l3.283-8.817h1.686l3.3 8.817h-1.932zm-2.695-1.472h2.204l-1.108-3.3zM51.223 33.568h-3.186l-.605 1.817H45.5l3.282-8.817h1.683l3.3 8.817h-1.93zm-2.695-1.473h2.204l-1.108-3.299zm13.107 3.288h-1.816l-3.537-5.8v5.802h-1.817v-8.817h1.817l3.542 5.813v-5.813h1.81zm6.363-1.817h-3.185l-.605 1.817h-1.932l3.282-8.817h1.683l3.3 8.817h-1.93zm-2.694-1.472h2.204l-1.108-3.3zm7.75 1.828h3.858v1.46h-5.674v-8.814h1.817zm6.614-3.385l1.835-3.972h1.986l-2.895 5.62v3.197h-1.841v-3.195l-2.895-5.62h1.992zm11.508-2.5H88.48v7.345h-1.82V28.04h-2.662v-1.473h7.182zm2.769 7.348h-1.817v-8.817h1.817zm8.384-2.937a3.121 3.121 0 01-1.05 2.24 3.693 3.693 0 01-2.499.818 3.32 3.32 0 01-2.665-1.141 4.68 4.68 0 01-.972-3.134v-.543a5.279 5.279 0 01.448-2.24 3.366 3.366 0 011.28-1.487 4.002 4.002 0 014.394.3 3.353 3.353 0 011.078 2.295h-1.819a1.842 1.842 0 00-.475-1.24 1.761 1.761 0 00-1.245-.388 1.542 1.542 0 00-1.359.651 3.65 3.65 0 00-.465 2.02v.666a3.908 3.908 0 00.433 2.093 1.517 1.517 0 001.366.66 1.791 1.791 0 001.256-.388 1.735 1.735 0 00.476-1.19zm5.641.62a.935.935 0 00-.364-.79 4.769 4.769 0 00-1.308-.582 9.195 9.195 0 01-1.495-.6 2.444 2.444 0 01-1.502-2.185 2.127 2.127 0 01.403-1.275 2.628 2.628 0 011.156-.875 4.364 4.364 0 011.693-.315 3.962 3.962 0 011.683.342 2.682 2.682 0 011.148.966 2.532 2.532 0 01.408 1.417h-1.817a1.189 1.189 0 00-.382-.941 1.569 1.569 0 00-1.072-.337 1.673 1.673 0 00-1.034.282.89.89 0 00-.37.741.853.853 0 00.433.721 4.863 4.863 0 001.274.543 5.524 5.524 0 012.26 1.156 2.301 2.301 0 01.708 1.72 2.122 2.122 0 01-.866 1.796 3.798 3.798 0 01-2.332.65 4.502 4.502 0 01-1.852-.371 2.933 2.933 0 01-1.275-1.02 2.614 2.614 0 01-.44-1.503h1.824q0 1.46 1.744 1.46a1.694 1.694 0 001.011-.264.857.857 0 00.364-.732z" fill="#ececec"/>
</svg>