<svg xmlns="http://www.w3.org/2000/svg" width="24" height="24"><path d="M14.419 4a.278.278 0 0 1 .196.081l1.135 1.13a.285.285 0 0 1 .003.4.277.277 0 0 1-.2.084h-2.11a.847.847 0 0 1 0-1.694zm3.3 3.576a.281.281 0 0 1 .279.283v1.129a.281.281 0 0 1-.279.282h-4.277a.847.847 0 0 1 0-1.693zm0 3.577a.281.281 0 0 1 .279.282v1.13a.281.281 0 0 1-.279.282h-4.277a.847.847 0 0 1 0-1.694zm-.7 3.576a.281.281 0 0 1 .279.283v1.129a.281.281 0 0 1-.279.282h-3.577a.847.847 0 0 1 0-1.694zm-1.631 3.577a.283.283 0 0 1 .2.477l-1.071 1.13a.277.277 0 0 1-.2.087h-.875a.847.847 0 0 1 0-1.694z" fill="#fff" fill-rule="evenodd"/><path d="M10.093 8.706a1.224 1.224 0 1 1-1.21 1.224 1.216 1.216 0 0 1 1.21-1.224zM11.396 4a.281.281 0 0 1 .278.282v1.13a.28.28 0 0 1-.278.282h-.69a.276.276 0 0 0-.197.082L7.76 8.541a.283.283 0 0 0-.082.2v3.309a.282.282 0 0 0 .083.2l.457.46.015.015a1.188 1.188 0 0 1 .328.825v2.475a.285.285 0 0 0 .083.2l1.987 1.997a.278.278 0 0 0 .197.082h.569a.28.28 0 0 1 .278.282v1.13a.281.281 0 0 1-.278.282h-.913a1.169 1.169 0 0 1-.804-.344l-2.45-2.46-.014-.015a1.189 1.189 0 0 1-.331-.824v-2.59l-.54-.544-.016-.015A1.191 1.191 0 0 1 6 12.382V8.39a1.19 1.19 0 0 1 .346-.818l3.213-3.228.014-.015a1.165 1.165 0 0 1 .81-.329z" fill="#f48230" fill-rule="evenodd"/><path fill="none" d="M0 0h24v24H0z"/></svg>