<svg xmlns="http://www.w3.org/2000/svg" viewBox="0 0 24 24" fill="#4D5B67" width="24px" height="24px">

    <path d="M0 0h24v24H0z" fill="none"/>
    <path d="M22,12.05A9.467,9.467,0,0,0,18.179,4.5L16.932,6A7.572,7.572,0,0,1,20,12.05a7.416,7.416,0,0,1-1.757,4.783l-1.4-1.4A5.54,5.54,0,0,0,18,12.05,5.683,5.683,0,0,0,15.682,7.5L14.427,9.011A3.776,3.776,0,0,1,16,12.05,3.615,3.615,0,0,1,15.409,14L3.515,2.105l-1.41,1.41,2.3,2.3A9.336,9.336,0,0,0,2,12.05,9.44,9.44,0,0,0,5.707,19.5L6.954,18A7.555,7.555,0,0,1,4,12.05,7.467,7.467,0,0,1,5.794,7.2L7.2,8.611A5.571,5.571,0,0,0,6,12.05,5.661,5.661,0,0,0,8.2,16.5l1.252-1.506A3.756,3.756,0,0,1,8,12.05a3.657,3.657,0,0,1,.615-2.025L20.485,21.9l1.41-1.41-2.264-2.264A9.291,9.291,0,0,0,22,12.05Z"/>

</svg>