<svg xmlns="http://www.w3.org/2000/svg" viewBox="0 0 24 24" fill="#4D5B67" width="24px" height="24px">

    <path d="M0 0h24v24H0z" fill="none"/>
    <path d="M12,2A10,10,0,1,0,22,12,10,10,0,0,0,12,2Zm3.61,6.34a1.93,1.93,0,1,1-1.93,1.93A1.925,1.925,0,0,1,15.61,8.34Zm-6-1.58A2.36,2.36,0,1,1,7.25,9.12,2.364,2.364,0,0,1,9.61,6.76Zm0,9.13v3.75a8.007,8.007,0,0,1-5.14-4.96c1.05-1.12,3.67-1.69,5.14-1.69a10.172,10.172,0,0,1,1.9.22A3.022,3.022,0,0,0,9.61,15.89ZM12,20a6.851,6.851,0,0,1-.79-.04V15.89c0-1.42,2.94-2.13,4.4-2.13a7.089,7.089,0,0,1,3.84,1.15A8.019,8.019,0,0,1,12,20Z"/>

</svg>