<svg xmlns="http://www.w3.org/2000/svg" viewBox="0 0 24 24"><path d="M0 0h24v24H0z" fill="none"/><path d="M19.073 12.906a6.739 6.739 0 00.059-.906 5.48 5.48 0 00-.069-.906l2.011-1.522a.465.465 0 00.119-.588l-1.9-3.2a.491.491 0 00-.585-.212l-2.369.928a7.109 7.109 0 00-1.6-.906l-.357-2.447a.474.474 0 00-.482-.397h-3.8a.464.464 0 00-.465.4l-.359 2.442a7.257 7.257 0 00-1.6.906L5.3 5.573a.48.48 0 00-.585.212l-1.892 3.2a.431.431 0 00.119.588l2.011 1.522a5.454 5.454 0 00-.085.905 5.556 5.556 0 00.069.906l-2.011 1.522a.465.465 0 00-.119.588l1.9 3.2a.491.491 0 00.585.212l2.369-.928a7.109 7.109 0 001.605.906l.357 2.447a.482.482 0 00.475.395h3.8a.457.457 0 00.465-.395l.357-2.447a6.878 6.878 0 001.605-.906l2.367.925a.48.48 0 00.585-.212l1.9-3.2a.439.439 0 00-.119-.588zM12 15.5a3.5 3.5 0 113.5-3.5 3.51 3.51 0 01-3.5 3.5z"/></svg>