<svg xmlns="http://www.w3.org/2000/svg" viewBox="0 0 24 24" fill="#4D5B67" width="24px" height="24px">

    <path d="M0 0h24v24H0z" fill="none"/>
    <path d="M13.868,13.75c-.015,0-.025.008-.039.009a4.97,4.97,0,1,0,.061,2.283V16H17v2.5h2V16h2V13.75ZM9,18a3,3,0,1,1,3-3A3,3,0,0,1,9,18ZM3.9,11.851a4.986,4.986,0,1,1,8.847-4.33c.03,0,.051-.012.082-.012.014,0,.024-.009.039-.009H20V9.75H18v2.5H16V9.75H12.941c-.02.082-.038.165-.051.25-.026.119-.072.231-.106.347a5.983,5.983,0,0,0-1.818-1.01A2.87,2.87,0,0,0,11,9a3,3,0,1,0-5.7,1.284A6.018,6.018,0,0,0,3.9,11.851Z" />

</svg>