<svg xmlns="http://www.w3.org/2000/svg" viewBox="0 0 24 24" fill="#4D5B67" width="24px" height="24px">

	<path d="M0 0h24v24H0z" fill="none"/>
	<path d="M12,3.621,4.308,8.042,7.29,9.75,15,5.336Zm4.5,2.574-7.715,4.41,3.256,1.862L19.74,8.054ZM3.5,9.312v6.2l7.75,4.441v-6.2Zm8.831-7.224,9.333,5.333h0A.661.661,0,0,1,22,8v8a.678.678,0,0,1-.336.579s-9.145,5.224-9.333,5.333a.663.663,0,0,1-.662,0c-.216-.125-9.333-5.333-9.333-5.333h0A.683.683,0,0,1,2,16V8a.642.642,0,0,1,.336-.579c.144-.085,9.333-5.333,9.333-5.333A.668.668,0,0,1,12.331,2.088Z"/>

</svg>