<svg xmlns="http://www.w3.org/2000/svg" viewBox="0 0 24 24"><path d="M0 0h24v24H0z" fill="none"/><path d="M8.294 5.7A10.368 10.368 0 0112 5a10.763 10.763 0 0110 7 11.056 11.056 0 01-3.046 4.356l-2.712-2.712A4.66 4.66 0 0012 7.333a4.3 4.3 0 00-1.709.36zM12 9.2c-.063 0-.123.013-.185.017l2.9 2.9c0-.04.01-.078.01-.119A2.761 2.761 0 0012 9.2zm5.752 8.075l2.342 2.342-1.061 1.061-2.385-2.386-.261-.261A10.44 10.44 0 0112 19a10.763 10.763 0 01-10-7 11.06 11.06 0 013.566-4.79l-.041-.041L3.5 5.144l1.038-1.083 2.3 2.3L9 8.521l1.3 1.3 3.864 3.864 1.3 1.3 2.245 2.245.043.043zm-3.414-1.293l-1.371-1.371A2.664 2.664 0 0112 14.8 2.761 2.761 0 019.273 12a2.86 2.86 0 01.162-.921L8.064 9.708A4.707 4.707 0 007.455 12 4.609 4.609 0 0012 16.667a4.407 4.407 0 002.338-.685z"/></svg>