<svg xmlns="http://www.w3.org/2000/svg" viewBox="0 0 24 24" fill="#4D5B67" width="24px" height="24px">

    <path d="M0 0h24v24H0z" fill="none"/>
    <path d="M14.427,8.892l1.255-1.568a5.969,5.969,0,0,1,.115,9.353l-1.252-1.566a3.952,3.952,0,0,0-.118-6.219ZM20,12.052a7.956,7.956,0,0,1-2.957,6.184l1.248,1.56A9.958,9.958,0,0,0,18.179,4.2L16.932,5.76A7.98,7.98,0,0,1,20,12.052ZM5.707,19.8l1.247-1.56A7.971,7.971,0,0,1,7.068,5.76L5.821,4.2a9.962,9.962,0,0,0-.114,15.6Zm2.5-3.122,1.252-1.566a3.952,3.952,0,0,1,.118-6.219L8.318,7.324A5.969,5.969,0,0,0,8.2,16.677ZM12,14.052a2,2,0,1,0-2-2A2.006,2.006,0,0,0,12,14.052Z"/>

</svg>