<svg xmlns="http://www.w3.org/2000/svg" viewBox="0 0 24 24"><path d="M0 0h24v24H0z" fill="none"/><path d="M4.5 12.12v.55l1 1 1-.937V12a6.018 6.018 0 016-6 5.3 5.3 0 012.8.7l1.5-1.5A8.94 8.94 0 0012.5 4a8.127 8.127 0 00-8 8.12zm13-.12a6.026 6.026 0 01-6.01 6 5.3 5.3 0 01-2.8-.7l-1.5 1.5a8.94 8.94 0 004.3 1.2 8.032 8.032 0 008.01-8v-.833l-.993-1.075-1.007 1.013zm-9.49-.88L5.536 13.6l-2.475-2.48L2 12.181l3.536 3.535 3.535-3.535zm7.98 1.545l2.474-2.475 2.475 2.475L22 11.6l-3.536-3.532-3.535 3.532z"/></svg>