<svg xmlns="http://www.w3.org/2000/svg" viewBox="0 0 24 24" fill="#4D5B67" width="24px" height="24px">

	<path d="M0 0h24v24H0z" fill="none"/>
	<path d="M12,5.737a6.448,6.448,0,0,0-6.364,6.539H7.455A4.61,4.61,0,0,1,12,7.605a4.61,4.61,0,0,1,4.545,4.671h1.819A6.448,6.448,0,0,0,12,5.737Zm.909,8.678a2.341,2.341,0,0,0,1.364-2.139,2.274,2.274,0,1,0-4.546,0,2.352,2.352,0,0,0,1.364,2.139V17.5l-3.1,3.186L9.273,22,12,19.2,14.727,22l1.282-1.317-3.1-3.186ZM12,2A10.147,10.147,0,0,0,2,12.276H3.818A8.3,8.3,0,0,1,12,3.868a8.3,8.3,0,0,1,8.182,8.408H22A10.147,10.147,0,0,0,12,2Z"/>

</svg>