<svg xmlns="http://www.w3.org/2000/svg" viewBox="0 0 24 24" fill="#4D5B67" width="24px" height="24px">

	<path d="M0 0h24v24H0z" fill="none"/>
	<path d="M20,11.824C18.317,7.84,12.423,8.4,13.87,2.609a.531.531,0,0,0-.8-.537C10.225,3.6,9.318,5.814,10.539,8.4c.621,1.317,1.587,1.417,1.653,3.257.018,1.283-2.15,2.529-3.487,1.443-1.642-1.336-.737-4.59-.669-6.125a.541.541,0,0,0-.975-.332C4.326,8.6,3.5,11.019,3.5,14.573c.408,5.469,5.48,7.149,7.3,7.364a9.255,9.255,0,0,0,7.1-2.177C20.134,17.875,21.2,14.442,20,11.824Z"/>

</svg>