<svg xmlns="http://www.w3.org/2000/svg" viewBox="0 0 24 24" fill="#4D5B67" width="24px" height="24px">

    <path d="M0 0h24v24H0z" fill="none"/>
    <path d="M18.033,14.225,21,12v3a4.822,4.822,0,0,1-.37,1.822Zm2.953,5.491L21,19.73,19.73,21,18.4,19.666A10.693,10.693,0,0,1,12,22c-4.08,0-9-3.12-9-7V12l4,3L5.45,16.55A8.064,8.064,0,0,0,11,19.92V12.27L9.73,11H8V9.27l-5-5L4.269,3,20.984,19.717Zm-4-1.464L13,14.27v5.65A9.086,9.086,0,0,0,16.982,18.252ZM9.017,5.209C9.012,5.139,9,5.071,9,5a3,3,0,1,1,4,2.82V9h3v2H14.807ZM11,5a1,1,0,1,0,1-1A1,1,0,0,0,11,5Z"/>

</svg>