<svg xmlns="http://www.w3.org/2000/svg" viewBox="0 0 24 24"><path d="M0 0h24v24H0z" fill="none"/><path d="M3.75 3.75v6h1.5v1.5h1.5v-1.5h3v-6zm6 6v1.5h1.5v1.5h-3v1.5h-4.5v6h6v-6h4.5v-1.5h-1.5v-1.5h3v-1.5h1.5v1.5h1.5v-1.5h1.5v-6h-6v6zm9 1.5v1.5h1.5v-1.5zm0 1.5h-1.5v1.5h1.5zm0 1.5v1.5h1.5v-1.5zm0 1.5h-1.5v-1.5h-1.5v1.5H12v4.5h1.5v-3h3v1.5H18v-1.5h.75zm-2.25 3H15v1.5h1.5zm.75-6v-1.5h-1.5v1.5zm-9 0v-1.5h-1.5v1.5zm-3-1.5h-1.5v1.5h1.5zm6-7.5v3h-.75v1.5h.75V9h1.5V6.75h.75v-1.5h-.75v-1.5zm-6 1.5h3v3h-3zm10.5 0h3v3h-3zM6 6v1.5h1.5V6zm10.5 0v1.5H18V6zM5.25 15.75h3v3h-3zm.75.75V18h1.5v-1.5zm12.75 2.25v1.5h1.5v-1.5z"/></svg>