<svg xmlns="http://www.w3.org/2000/svg" viewBox="0 0 24 24" fill="#4D5B67" width="24px" height="24px">

	<path d="M0 0h24v24H0z" fill="none"/>
	<path d="M12.83,4.6a1.1,1.1,0,0,0-.991,1.178,1.391,1.391,0,0,0,.1.53c.124.043.281.107.451.172a.816.816,0,0,1-.09-.374.609.609,0,0,1,.52-.665.608.608,0,0,1,.522.665.677.677,0,0,1-.333.619c.092.041.178.073.26.11a1.216,1.216,0,0,0,.547-1.055A1.1,1.1,0,0,0,12.83,4.6Zm-2.538.188c-.432,0-.78.5-.785,1.116a1.154,1.154,0,0,0,.55,1.07,3.32,3.32,0,0,0,.318-.27.4.4,0,0,1-.039.011c-.229.038-.46-.207-.518-.547s.079-.643.308-.682.461.208.518.547a.788.788,0,0,1-.065.49l.144-.121a1.091,1.091,0,0,1,.317-.175,1.565,1.565,0,0,0,.033-.321C11.073,5.292,10.723,4.792,10.292,4.792Zm1.18,1.847c-.273-.049-.726.327-.9.484s-.576.455-.576.455c-.13.218.386.628.658.8s.417.314.675.281a7.422,7.422,0,0,0,1.432-.734c.371-.223.514-.223.547-.394s-.274-.345-.547-.437A13.55,13.55,0,0,0,11.472,6.639Zm2.253,1.382c-.222-.188-1.725.9-2.394,1.087S9.7,8.176,9.7,8.176a2.716,2.716,0,0,1-.639,2.018c-.447.5-.734,1.99-1.18,2.674A3.6,3.6,0,0,0,7.5,15.729c.35.808,2.3,1.712,2.394,2.363a.653.653,0,0,1-.574.747l.861.964a7.5,7.5,0,0,0,2.3-.062A4.268,4.268,0,0,0,15,18.188v-.132a16.039,16.039,0,0,1,.091-1.888c.1-.437.831-.253.831-.253a5.564,5.564,0,0,0,.128-2.3A26.1,26.1,0,0,0,13.725,8.021Zm-6.32,8.953c-.231-.351-.791-.971-1.1-.8s-.381.818-.765,1.043-1.375.222-1.453.545.153.62.078,1.094-.384.965-.18,1.192,1.761.3,2.373.545a6.19,6.19,0,0,0,2.448.671,1.523,1.523,0,0,0,.64-.769,1.618,1.618,0,0,0-.591-1.317A25.369,25.369,0,0,1,7.405,16.974Zm8.647-.461a.435.435,0,0,0-.32.047c-.084.064-.067.375-.039.719l.021.261c.007.086.014.172.018.252a9.6,9.6,0,0,1-.3,2.1A1.132,1.132,0,0,0,16,21.319c.4.12,1.044-.29,1.539-.8A24.648,24.648,0,0,1,20,19.1c.3-.268-.275-.533-.642-.725a1.274,1.274,0,0,1-.547-1.135.507.507,0,0,0-.224-.508l-.025.048a2.334,2.334,0,0,1-.4.554,1.811,1.811,0,0,1-1.637.341C15.956,17.429,16.052,16.513,16.052,16.513Zm-5.9-13.9c1.342-.9,3.832-1.024,4.792,1.086S15,7.463,16.055,8.894A23.124,23.124,0,0,1,18.9,13.4a4.78,4.78,0,0,1-.031,2.613,1.457,1.457,0,0,1,.48,1.086c-.032.657.415,1,.958,1.214s.7.928-.168,1.4a15.7,15.7,0,0,0-2.968,1.8,1.72,1.72,0,0,1-1.885.341,1.68,1.68,0,0,1-.639-.715,10.167,10.167,0,0,0-2.361-.246,14.333,14.333,0,0,0-2.36.279l0,.008-.029.058a1.235,1.235,0,0,1-1.309.618c-1.023-.123-2.237-.806-3.323-.933s-2.2-.341-1.979-1.055.417-1.029.224-1.586-.19-1.061.608-1.216,1.243-.372,1.468-.835a1.014,1.014,0,0,1,.511-.561,1.6,1.6,0,0,1,.128-1.367c.417-.715.832-2.456,1.407-3.294S9.061,9.17,9.189,8.9a6.084,6.084,0,0,0,.094-2.081C9.218,5.755,8.8,3.516,10.147,2.616Z"/>

</svg>