<svg xmlns="http://www.w3.org/2000/svg" viewBox="0 0 24 24" fill="#4D5B67" width="24px" height="24px">

	<path d="M0 0h24v24H0z" fill="none"/>
	<path d="M14.106,5.551s.979,4.546,1.078,4.982.3.458.3.458h2.776V12.6H14.631c-.572,0-.795-.748-.795-.748l-.607-2.523L11.483,17H9.766s-.742-3.943-.792-4.179a.336.336,0,0,0-.3-.251H5.743V10.951H6.838l.961,0H9.184a1.093,1.093,0,0,1,.851.287.952.952,0,0,1,.337.465l.295,1.474L12.42,5.551ZM12.517,2l.043.009c.587.119,6.908,1.407,7.693,1.56a.921.921,0,0,1,.745,1v9.774a5.346,5.346,0,0,1-1.448,2.746,14.048,14.048,0,0,1-3.307,2.875,25.86,25.86,0,0,1-2.471,1.412l-.313.16c-.449.229-.794.4-.9.451L12.517,22V19.712a23.259,23.259,0,0,0,2.292-1.169,15.692,15.692,0,0,0,1.732-1.162,9.539,9.539,0,0,0,1.746-1.75,5.5,5.5,0,0,0,.94-1.648,1.285,1.285,0,0,0,.065-.394V5.529a.443.443,0,0,0-.344-.45l-6.43-1.293ZM11.483,2V3.786L5.053,5.079a.443.443,0,0,0-.344.45v8.06a1.285,1.285,0,0,0,.065.394,5.5,5.5,0,0,0,.94,1.648,9.539,9.539,0,0,0,1.746,1.75,15.692,15.692,0,0,0,1.732,1.162,23.259,23.259,0,0,0,2.292,1.169V22l-.037-.018c-.111-.054-.456-.222-.9-.451l-.313-.16a25.86,25.86,0,0,1-2.471-1.412A14.048,14.048,0,0,1,4.45,17.084,5.346,5.346,0,0,1,3,14.338V4.564a.921.921,0,0,1,.745-1c.785-.153,7.106-1.441,7.693-1.56Z"/>

</svg>