<svg xmlns="http://www.w3.org/2000/svg" viewBox="0 0 24 24" fill="#4D5B67" width="24px" height="24px">

	<path d="M0 0h24v24H0z" fill="none"/>
	<path d="M17.41,3.8a1.006,1.006,0,0,1,.706.288,10.057,10.057,0,0,1,1.877,1.9,1.01,1.01,0,1,1-1.588,1.217A8.076,8.076,0,0,0,16.929,5.7a1.01,1.01,0,0,1,.481-1.9ZM12,10a2,2,0,1,1-2,2A2,2,0,0,1,12,10Zm0-8a10,10,0,0,1,3.092.487,1.01,1.01,0,1,1-.612,1.9A8.145,8.145,0,0,0,12,4a8,8,0,0,0-8,8,8.113,8.113,0,0,0,.078,1.12,1.027,1.027,0,0,1,.042.29,1.01,1.01,0,0,1-2.02.01A10.009,10.009,0,0,1,12,2Zm4.33,11.5a1,1,0,0,1,.8,1.613,6.029,6.029,0,0,1-1.8,1.878,1,1,0,1,1-1.087-1.679,4.023,4.023,0,0,0,1.181-1.245A1,1,0,0,1,16.33,13.5ZM12,6a6,6,0,0,1,5.916,5,1,1,0,1,1-1.974.32,4,4,0,1,0-4.633,4.623,1.005,1.005,0,0,1-.034,2.01,1.038,1.038,0,0,1-.217-.023A6,6,0,0,1,12,6ZM3.935,15a1.011,1.011,0,0,1,.943.647,8.027,8.027,0,0,0,3.268,3.365,1.044,1.044,0,0,1,.132.071l.032.017,0,0A1.01,1.01,0,1,1,7.1,20.716a10.034,10.034,0,0,1-3.968-4.1A1.009,1.009,0,0,1,3.935,15ZM20.59,8.325a1.012,1.012,0,0,1,.981.767A10.006,10.006,0,0,1,10.724,21.919a.993.993,0,0,1-.205-.028l-.019,0a1.011,1.011,0,1,1,.56-1.943A8.1,8.1,0,0,0,12,20,8.006,8.006,0,0,0,19.694,9.8a1.007,1.007,0,0,1-.107-.345l-.006-.018c0-.035,0-.069,0-.1A1.01,1.01,0,0,1,20.59,8.325Z"/>

</svg>