<svg xmlns="http://www.w3.org/2000/svg" viewBox="0 0 24 24" fill="#4D5B67" width="24px" height="24px">

	<path d="M0 0h24v24H0z" fill="none"/>
	<path d="M15.854,2.505a4.567,4.567,0,0,1-.349,1.634A4.928,4.928,0,0,1,14.387,5.8a3.4,3.4,0,0,1-1.3.865,6.62,6.62,0,0,1-1.25.205,5.471,5.471,0,0,1,.938-3.089A4.79,4.79,0,0,1,15.782,2a1.171,1.171,0,0,1,.03.132,1.171,1.171,0,0,0,.03.132c0,.032,0,.073.006.121S15.854,2.473,15.854,2.505Zm4.521,14.1a11.607,11.607,0,0,1-1.479,3q-1.551,2.356-3.09,2.356a5.546,5.546,0,0,1-1.684-.385,5.319,5.319,0,0,0-1.815-.384,4.639,4.639,0,0,0-1.708.4A4.336,4.336,0,0,1,9.012,22q-1.828,0-3.619-3.113a12.313,12.313,0,0,1-1.768-6.046A7.128,7.128,0,0,1,4.984,8.346,4.152,4.152,0,0,1,8.4,6.615a8.024,8.024,0,0,1,2.128.361,7.792,7.792,0,0,0,1.659.361,6.043,6.043,0,0,0,1.72-.409,6.781,6.781,0,0,1,2.08-.409,4.4,4.4,0,0,1,2.561.781A6.242,6.242,0,0,1,19.8,8.5a7.805,7.805,0,0,0-1.371,1.419,4.278,4.278,0,0,0-.782,2.488,4.577,4.577,0,0,0,.83,2.68A3.656,3.656,0,0,0,20.375,16.6Z"/>

</svg>