<svg xmlns="http://www.w3.org/2000/svg" viewBox="0 0 24 24" fill="#4D5B67" width="24px" height="24px">

	<path d="M0 0h24v24H0z" fill="none"/>
	<path d="M19.781,14.239v-3L15.887,8.982a1.107,1.107,0,0,1-.548-.953V3.523l-2.586-1.5v8.147ZM4.953,15.518l2.586,1.5,3.89-2.253a1.085,1.085,0,0,1,1.1,0l3.894,2.253,2.586-1.5L12,11.442ZM11.263,2,8.677,3.5V8.023a1.1,1.1,0,0,1-.548.953L4.24,11.229v3l7.044-4.076Zm6.843,5.7L22,9.94V5.455a1.133,1.133,0,0,0-.564-.979L17.552,2.233V6.739A1.109,1.109,0,0,0,18.106,7.7Zm-5.56,9.634a1.087,1.087,0,0,0-1.1,0L7.555,19.584l3.9,2.268a1.092,1.092,0,0,0,1.1,0L16.445,19.6ZM2,9.94H2V5.455a1.122,1.122,0,0,1,.553-.979L6.432,2.233v4.5a1.1,1.1,0,0,1-.548.953Z"/>

</svg>