<svg xmlns="http://www.w3.org/2000/svg" viewBox="0 0 24 24" fill="#4D5B67" width="24px" height="24px">

	<path d="M0 0h24v24H0z" fill="none"/>
	<path d="M13.088,11.6H19v.789l-.011.011h-5.9v-.8Zm.884-1.6h-.884v.8L19,10.8V10H13.972Zm3.291,5.6h.716c.021-.322.039-.6.05-.77l-.765.77Zm-4.175-.8v.8h3.57v-.8h-3.57Zm0-1.6V14H17.4l.794-.8H13.088Zm5.637-7.867A.946.946,0,0,1,19,6H12.011v.8H19v.8H12.011v.8H19v.8h0l-6.987,0v0h0v5.592H10v.7l.9.9,7.029,0h0c-.018.272-.036.546-.053.8H8.393l.5.5A1,1,0,0,0,9.6,18l8.223,0h0l0,.044a.94.94,0,0,1-.224.551l-.174.2h0L9.981,18.8l.8.8,5.962,0h0l-.683.8H12.011v.8h3.36l-.165.193a.935.935,0,0,1-.573.318L12.7,22H11.3l-1.935-.288a.935.935,0,0,1-.573-.318L6.409,18.6a.94.94,0,0,1-.225-.557c-.043-.719-.148-2.475-.2-3.264l1.355,1.364v-1.4L5,12.389V6.025a1.008,1.008,0,0,1,.292-.71L8.313,2.276A.934.934,0,0,1,8.975,2h6.051a.937.937,0,0,1,.662.276l.52.523h-4.2v.8H17l.794.8H12.011v.8h6.583ZM10.71,9.09h0a4.635,4.635,0,0,0-4.117,0l-.006,0a.4.4,0,0,0-.223.36V9.5a1.213,1.213,0,0,0,.351.854,1.194,1.194,0,0,0,.849.354h3.368V9.45A.4.4,0,0,0,10.71,9.09Z"/>

</svg>