<svg xmlns="http://www.w3.org/2000/svg" viewBox="0 0 24 24" width="24px" height="24px" version="1.1"><path d="M 14.153,17.045672 C 12.191307,14.625375 10.13495,12.276102 8.2351485,9.8092287 7.3279358,8.1246219 7.8227876,6.160797 7.6955,4.3408896 c 0,-1.1325725 0,-2.2651451 0,-3.39771759 C 6.2690425,1.3172733 4.8066395,1.5813683 3.403984,2.029334 2.0649781,2.806032 2.2989781,4.551359 2.304456,5.866542 c 0.024535,3.7777012 -0.05876,7.562561 0.04413,11.335755 0.3887706,1.451293 1.9852282,1.910015 3.046151,2.75662 0.779421,0.513918 1.5588421,1.027837 2.3382632,1.541755 0.1018882,-1.648185 -0.36585,-3.511042 0.6975053,-4.941681 0.5699619,-0.858857 1.3374668,-1.563339 1.9200015,-2.412733 1.29239,0.606385 -0.4970872,1.780671 -0.9189355,2.463653 -1.0576692,1.36729 -0.7709735,3.199871 -0.8338059,4.808719 0.053085,1.309567 1.5653614,1.626775 2.4731314,2.250129 1.156399,0.665574 2.223253,-0.218092 3.178702,-0.777998 0.995327,-0.780443 0.236722,-2.285887 0.47696,-3.377419 0.03295,-0.855928 -0.04916,-1.727758 -0.566059,-2.44517 m 5.79,-15.24 c -1.4375,-0.3475 -2.875,-0.695 -4.3125,-1.04249999 -0.02706,2.67735999 0.05546,5.35901059 -0.04368,8.03362329 -0.245154,1.3959717 -1.380901,2.3511137 -2.206325,3.4188767 -1.015956,-0.856656 0.448107,-1.723066 0.924417,-2.4255717 0.72913,-1.3223121 0.362506,-2.888316 0.448083,-4.3334227 0,-1.6345019 0,-3.2690037 0,-4.90350559 C 13.448765,0.31015893 12.045458,-0.35954579 10.727533,0.24624994 9.7765089,0.22464481 8.9034438,0.69975982 9.2875694,1.7862049 c 0.020364,2.1824383 -0.055515,4.3723246 0.042386,6.5500646 0.4041532,1.6019185 1.8353966,2.6114115 2.7360766,3.9203645 1.249371,1.561612 2.617767,3.03877 3.771264,4.670698 0.723346,1.38816 0.384278,2.991466 0.477276,4.486026 0.962937,-0.418106 1.76653,-1.147603 2.678786,-1.673362 0.766927,-0.538332 1.647564,-0.969407 2.28236,-1.662449 0.757999,-1.269499 0.295245,-2.805191 0.421637,-4.199576 -0.0165,-3.44429 0.03739,-6.8923914 -0.02819,-10.3342904 C 21.52118,2.698746 20.817869,1.9685058 19.9655,1.828172"></path></svg>
