<svg xmlns="http://www.w3.org/2000/svg" viewBox="0 0 24 24" fill="#4D5B67" width="24px" height="24px">

    <path d="M0 0h24v24H0z" fill="none"/>
    <path d="M4.312,8.459A1.275,1.275,0,0,0,3,9.693v5.166a1.282,1.282,0,0,0,1.312,1.249,1.282,1.282,0,0,0,1.313-1.249V9.693A1.276,1.276,0,0,0,4.312,8.459Zm13.556.231H6.134V16.7a1.223,1.223,0,0,0,.186.619,1.394,1.394,0,0,0,1.215.7H8.49v2.734a1.17,1.17,0,0,0,.1.48,1.346,1.346,0,0,0,1.719.657,1.237,1.237,0,0,0,.8-1.142v-2.73h1.771V20.75a1.315,1.315,0,0,0,2.627,0h0V18.016h.957a1.427,1.427,0,0,0,.85-.3,1.267,1.267,0,0,0,.551-1.02V8.69ZM21,9.69a1.314,1.314,0,0,0-2.625,0v5.169a1.314,1.314,0,0,0,2.625,0ZM14.9,3.82l.917-1.571a.164.164,0,0,0-.063-.227V2.013A.205.205,0,0,0,15.643,2a.175.175,0,0,0-.139.079l-.936,1.589A6.589,6.589,0,0,0,13.5,3.344a6.6,6.6,0,0,0-4.066.324L8.505,2.085a.174.174,0,0,0-.15-.079.187.187,0,0,0-.1.01.167.167,0,0,0-.088.1.157.157,0,0,0,.015.13L9.1,3.818a5.942,5.942,0,0,0-1.231.794,5.468,5.468,0,0,0-.515.494A4.654,4.654,0,0,0,6.079,8.263H17.9A5.025,5.025,0,0,0,14.9,3.82ZM9.307,6.247a.466.466,0,1,1,.5-.465.476.476,0,0,1-.5.465h0Zm5.384,0a.468.468,0,1,1,.495-.465.478.478,0,0,1-.495.465h0Z"/>

 </svg>