<svg xmlns="http://www.w3.org/2000/svg" viewBox="0 0 24 24" width="24" height="24px">

    <path d="M22,10.963a.625.625,0,0,0-.625-.625H13.463a.624.624,0,0,0-.625.623h0V21.375a.625.625,0,0,0,.625.625h7.912A.625.625,0,0,0,22,21.375Zm-2.294,9.368H15.125a.625.625,0,0,1-.625-.625V12.625A.625.625,0,0,1,15.125,12h4.581a.625.625,0,0,1,.625.625v7.081A.625.625,0,0,1,19.706,20.331ZM11.162,2.625A.625.625,0,0,0,10.537,2H2.625A.625.625,0,0,0,2,2.625V13.037a.625.625,0,0,0,.625.625h7.919a.625.625,0,0,0,.625-.625ZM8.875,12H4.287a.625.625,0,0,1-.625-.625V4.294a.625.625,0,0,1,.625-.625H8.875a.625.625,0,0,1,.625.625v7.081A.625.625,0,0,1,8.875,12Zm2.287,3.963a.624.624,0,0,0-.623-.625H2.625A.625.625,0,0,0,2,15.963v5.412A.625.625,0,0,0,2.625,22h7.919a.625.625,0,0,0,.625-.625ZM22,2.625A.625.625,0,0,0,21.375,2H13.463a.625.625,0,0,0-.625.625V8.038a.625.625,0,0,0,.625.625h7.912A.625.625,0,0,0,22,8.038Z"/>

</svg>