<svg xmlns="http://www.w3.org/2000/svg" viewBox="0 0 24 24" width="24" height="24px">

    <path d="M12.715,22c5.4-2.5,6.863-4.475,7.775-5.781a3.314,3.314,0,0,0,.8-2.125V4.481c0-.756-.445-.868-.445-.868L12.715,2V3.431l6.757,1.344s.368.1.368.725v8.026a2.733,2.733,0,0,1-.662,1.774c-.763,1.075-1.988,2.756-6.463,4.825ZM11.285,2,3.159,3.612s-.444.113-.444.888v9.594a3.339,3.339,0,0,0,.8,2.118C4.428,17.512,5.9,19.5,11.273,22V20.125c-4.475-2.075-5.7-3.75-6.46-4.821a2.737,2.737,0,0,1-.665-1.779V5.5c0-.631.368-.725.368-.725l6.769-1.344ZM4.86,12.438H8.537a.561.561,0,0,1,.478.443L9.8,17h1.5L13.29,8.506l.745,3.094s.149.875.85.875H19.14V11.169h-3.5s-.331.025-.456-.563-1.119-5.037-1.119-5.037H12.59l-1.975,8.443-.484-2.237a1.1,1.1,0,0,0-.9-.619H4.86Z"/>

</svg>