<svg xmlns="http://www.w3.org/2000/svg" viewBox="0 0 24 24" width="24" height="24px">

    <path d="M3.668,2.834A.834.834,0,0,0,2,2.834V21.169H2A.831.831,0,0,0,2.831,22H21.166a.834.834,0,0,0,0-1.668H3.668Zm1.663,15a.834.834,0,0,0,1.668,0V13.67a.834.834,0,1,0-1.668,0Zm3.33,0a.835.835,0,0,0,1.669,0v-7.5a.835.835,0,0,0-1.669,0Zm3.339,0a.835.835,0,0,0,1.669,0V12A.835.835,0,0,0,12,11.942.561.561,0,0,0,12,12Zm3.331.006A.835.835,0,0,0,17,17.9a.561.561,0,0,0,0-.058v-10a.835.835,0,0,0-1.669,0Zm3.331,0a.834.834,0,0,0,1.668,0v-5a.834.834,0,0,0-1.668,0Z"/>

</svg>