<svg xmlns="http://www.w3.org/2000/svg" viewBox="0 0 24 24" width="24" height="24px">

    <path d="M3.784,6.556l7.61-4.394A1.213,1.213,0,0,1,12,2l.105,0a1.208,1.208,0,0,1,.5.157l7.61,4.394a1.242,1.242,0,0,1,.141.095l.028.022.041.036.043.041.024.025c.017.018.033.036.049.055l.02.026a.736.736,0,0,1,.047.063l.013.019c.016.025.032.05.046.075l.009.016c.012.022.023.045.033.068l.015.031a1.214,1.214,0,0,1,.064.2l.01.041c0,.019.007.038.01.058l0,.018,0,.03a1.222,1.222,0,0,1,.008.135v8.788a1.212,1.212,0,0,1-.607,1.05l-7.61,4.394a1.214,1.214,0,0,1-1.212,0l-7.61-4.394a1.212,1.212,0,0,1-.607-1.05V7.606l0-.056v0l0-.039A1.183,1.183,0,0,1,3.2,7.36c0-.019.008-.037.012-.056l.013-.044.015-.049c.007-.019.014-.038.022-.057l.015-.035c.008-.019.016-.037.025-.055l.02-.038.026-.045.031-.05L3.4,6.9c.013-.017.025-.034.038-.05l.027-.033.038-.042.034-.035L3.586,6.7l.026-.023c.017-.014.035-.029.053-.042l.027-.02.008,0c.027-.019.055-.036.084-.053ZM5.15,9.319v6.267a.637.637,0,0,0,.318.552l6.213,3.586a.634.634,0,0,0,.636,0l6.212-3.586a.638.638,0,0,0,.319-.552V9.319l-6.242,3.6a1.21,1.21,0,0,1-1.212,0L5.15,9.319Zm6.536-5.047L6.022,7.543l5.66,3.267a.634.634,0,0,0,.636,0l5.66-3.267L12.313,4.272l-.07-.034a.638.638,0,0,0-.557.034Z"/>

</svg>