<svg xmlns="http://www.w3.org/2000/svg" viewBox="0 0 24 24" width="24" height="24px">

    <path d="M12,6.775a1.425,1.425,0,1,1,0,2.85,1.4,1.4,0,0,1-.859-.294A1.423,1.423,0,0,1,12,6.775ZM12,2.5a5.67,5.67,0,0,1,5.627,5.189,1.059,1.059,0,0,1-2.108.209V7.879a3.544,3.544,0,0,0-3.515-3.241,3.474,3.474,0,0,0-1.121.183,3.578,3.578,0,0,0-1.463,5.807,3.442,3.442,0,0,0-.977,1.995l-.036-.029a5.724,5.724,0,0,1,1.8-9.8A5.629,5.629,0,0,1,12,2.5Zm-.147,8.55a2.019,2.019,0,1,1-2,2.037v-.018A2.01,2.01,0,0,1,11.857,11.05ZM7.65,14.375a1.413,1.413,0,0,1,1.318.912,1.453,1.453,0,0,1,.1.513,1.42,1.42,0,0,1-1.412,1.425h0a1.4,1.4,0,0,1-.86-.3,1.423,1.423,0,0,1,.859-2.555Zm8.65,0a1.425,1.425,0,0,1,0,2.85,1.4,1.4,0,0,1-.86-.3,1.432,1.432,0,0,1,.412-2.482A1.4,1.4,0,0,1,16.3,14.375Zm0-4.275a5.7,5.7,0,0,1,0,11.4,5.593,5.593,0,0,1-2.327-.506,1.072,1.072,0,0,1-.528-1.414,1.055,1.055,0,0,1,1.383-.541l.019.008a3.472,3.472,0,0,0,1.454.315,3.563,3.563,0,0,0,0-7.125,3.513,3.513,0,0,0-1.119.183,3.444,3.444,0,0,0-1.042-1.885c.023-.012.047-.022.071-.032.1-.039.2-.076.3-.11A5.631,5.631,0,0,1,16.3,10.1ZM5.845,11.408a1.076,1.076,0,0,1-.229,1.479l-.03.022A3.582,3.582,0,0,0,5.5,18.627a3.483,3.483,0,0,0,2.149.735,3.542,3.542,0,0,0,3.474-2.923,3.4,3.4,0,0,0,2.161-.255.452.452,0,0,1,0,.051A5.671,5.671,0,0,1,7.65,21.5a5.6,5.6,0,0,1-3.44-1.178A5.731,5.731,0,0,1,4.3,11.208l.065-.048a1.055,1.055,0,0,1,1.471.238Z"/>

</svg>