<svg xmlns="http://www.w3.org/2000/svg" viewBox="0 0 24 24" width="24" height="24px">

    <path d="M14.175,17.319l-.844,3.25H10.669l-.844-3.25a6.006,6.006,0,0,1-1.472-.811l-3.328.93L3.694,15.125l2.431-2.387A5.522,5.522,0,0,1,6.076,12a5.615,5.615,0,0,1,.052-.767L3.694,8.875,5.025,6.569l3.344.925a5.886,5.886,0,0,1,1.415-.786l.885-3.27h2.668l.844,3.256a6.006,6.006,0,0,1,1.472.811l3.328-.936,1.325,2.306-2.431,2.388a5.507,5.507,0,0,1,.049.737,5.615,5.615,0,0,1-.052.767l2.434,2.358-1.331,2.313-3.344-.925a5.941,5.941,0,0,1-1.415.792Zm1.969-11.25a7.288,7.288,0,0,0-.966-.537L14.225,2H9.775l-.9,3.525a7.36,7.36,0,0,0-1.04.574L4.225,5.075,2,8.925l2.612,2.569v1.012L2,15.075l2.225,3.85,3.631-1.006a7.358,7.358,0,0,0,.972.537L9.775,22h4.444l.906-3.525a7.36,7.36,0,0,0,1.04-.574l3.6,1.024L22,15.075l-2.613-2.569V11.494L22,8.925l-2.225-3.85ZM12,8.425a3.57,3.57,0,1,0,.01,0Zm0,1.431A2.144,2.144,0,1,1,9.856,12h0A2.144,2.144,0,0,1,12,9.856Z"/>

</svg>