<svg xmlns="http://www.w3.org/2000/svg" viewBox="0 0 24 24" width="24" height="24px">

    <path d="M14.85,11.463a1.25,1.25,0,0,0,1.25,1.25h1.631v5H15.587V16.1a1.25,1.25,0,0,0-1.25-1.25H9.681a1.25,1.25,0,0,0-1.25,1.25v1.613H6.287V9.15H7.894A1.25,1.25,0,0,0,9.144,7.9L9.15,3.25A1.25,1.25,0,0,0,7.9,2H3.25A1.25,1.25,0,0,0,2,3.25V7.894a1.25,1.25,0,0,0,1.25,1.25H4.856v9.375a.625.625,0,0,0,.625.625h2.95L8.425,20.75A1.25,1.25,0,0,0,9.675,22h4.644a1.25,1.25,0,0,0,1.25-1.25V19.144h2.95a.625.625,0,0,0,.625-.625v-5.8H20.75A1.25,1.25,0,0,0,22,11.469V6.812a1.25,1.25,0,0,0-1.25-1.25H16.113a1.25,1.25,0,0,0-1.25,1.25ZM3.431,4.05a.626.626,0,0,1,.619-.625H7.094a.625.625,0,0,1,.625.625V7.094a.625.625,0,0,1-.625.625H4.056a.625.625,0,0,1-.625-.625ZM16.288,7.625h0A.626.626,0,0,1,16.906,7H19.95a.625.625,0,0,1,.625.625v3.038a.625.625,0,0,1-.625.625H16.913a.625.625,0,0,1-.625-.625Zm-5.807,8.656h3.038a.625.625,0,0,1,.625.625v3.038a.625.625,0,0,1-.625.625H10.481a.625.625,0,0,1-.625-.625V16.906A.625.625,0,0,1,10.481,16.281Z"/>

</svg>