<svg xmlns="http://www.w3.org/2000/svg" xmlns:xlink="http://www.w3.org/1999/xlink" viewBox="0 0 160 160">
	<defs>
		<linearGradient id="a" x1="105.358" y1="57.953" x2="105.695" y2="53.147" gradientUnits="userSpaceOnUse">
			<stop offset="0" stop-color="#ffbeb6"/>
			<stop offset="1" stop-color="#f2a19c"/>
		</linearGradient>
		<linearGradient id="b" x1="-446.827" y1="-1149.356" x2="-446.664" y2="-1149.687" gradientTransform="matrix(10.854, 0, 0, -19.898, 4939.032, -22813.309)" xlink:href="#a"/>
	</defs>

	<circle cx="80" cy="80" r="80" style="fill:#eaecee"/>
	<path d="M39.2,148.811A79.617,79.617,0,0,0,80,160c.268,0,.532-.018.8-.02V138.4H39.2Z" style="fill:#344554;fill-rule:evenodd"/>
	<path d="M106.1,57.1s1.2,1.473-1.345,2.919-3.231,1.166-5.072-.711a16.555,16.555,0,0,1-2.128-2.392L90.738,64.05a5.585,5.585,0,0,0,3.476,3.5c2.633.753,3.426,1.188,4.447,2.2a8.432,8.432,0,0,0,7.854,2.2c6.6-1.246,6.357-12.564,1.793-17.24l5.526-3.172" style="fill:#4d5b67;fill-rule:evenodd"/>
	<path d="M95.553,23.436,47.836,48.011,98.472,76.467Z" style="fill:#1475dc;fill-rule:evenodd"/>
	<path d="M123.967,146.826l-9.173-52.11H91.226l.925,7.058h23.884l.185,1.066H92.291l2.576,19.66h24.814l.19,1.065H95.007l1.221,9.322H121.51l.189,1.066H96.369l-.042-.312,1.258,9.595h25.747l.189,1.065h-25.8l1.222,9.326h12.385c-.881.375-1.778.721-2.675,1.066h-9.57l.382,2.91c-.348.087-.7.16-1.049.242L90.145,94.71H89.009l-6.335,65.222q-.539.018-1.079.028l6.441-66.31h27.657l.078.441,9.171,52.1C124.62,146.4,124.291,146.612,123.967,146.826ZM93.651,113.217h24.4l-.189-1.066H93.512Z" style="fill:#aeb5bb;fill-rule:evenodd"/>
	<path d="M112.837,112.685H94.826s.923-1.716,4-2.987a24.321,24.321,0,0,0,5.952-3.87h5.506Z" style="fill:#4d5b67;fill-rule:evenodd"/>
	<path d="M116.243,115.664l2.7,7.259H99.875s.978-1.817,4.237-3.163a25.684,25.684,0,0,0,6.3-4.1Z" style="fill:#4d5b67;fill-rule:evenodd"/>
	<path d="M102.346,69.6s-2.671,7.663-4.095,11.344c-1.46,3.777-1.864,5.82.53,10.966,1.889,4.062,6,13.921,6,13.921h4.993a14.563,14.563,0,0,0-.384-6.939c-1.152-3.515-2.016-3.053-2.3-5.643s-3.265-4.348-1.344-8.6,5.107-3.6,8.267-15.305Z" style="fill:#061526;fill-rule:evenodd"/>
	<path d="M116.244,115.664h-5.83s-9.027-19.532-9.45-23.5a52.681,52.681,0,0,1,.506-12.6c.072-.471.464-6.351.545-6.806a44.377,44.377,0,0,1,5.014-.053c.289.007,3.41-.019,4.249-.089.857,0,1.661-.049,2.4-.118a23.5,23.5,0,0,1-1.67,7.984c-3.371,9.088-.841,10.386.253,13.137s1.686,4.428,1.434,7.026,1.009,1.909,1.686,5.271A79.776,79.776,0,0,1,116.244,115.664Z" style="fill:#1f2c3c;fill-rule:evenodd"/>
	<path d="M104.443,53.433a11.817,11.817,0,0,1-.475,4.423,16.672,16.672,0,0,1,2.617-2.42l.5-2.192-2.69.041Z" style="fill:url(#a)"/>
	<path d="M108.039,52.456a2.117,2.117,0,0,0-1.36,1.342c-.354.007-.6,0-.6,0-5.211-.477-4.033-5.038-4.033-5.038-.463-1.089-.434-1.353.86-1.374a6.342,6.342,0,0,0,2.579-1.286.482.482,0,0,1,.124-.073,8.611,8.611,0,0,0,.638,3.021c.747,1.76,1.156,1.94,1.827,1.9a.757.757,0,0,1-.035,1.508Z" style="fill:#ffbeb6"/>
	<path d="M115.621,77.64s-6.663,3.032-15.316-6.142l3.668-13.649a16.5,16.5,0,0,1,2.611-2.414l.029-.123c.248-.211.507-.439.777-.678a20.371,20.371,0,0,1,5.459,6.461c2.269,4.2,1.466,5.625,2.681,8.092S118.462,74.706,115.621,77.64Z" style="fill:#4d5b67;fill-rule:evenodd"/>
	<path d="M92.276,59.719,89.465,62.6a15.848,15.848,0,0,0-3.33-7.243c-2.663-3.326-2.071-4.952-.665-6.578,1.331-1.628,1.553-.888,1.849.444s.888,3.108,1.554,3.478c.592.369.814-.962,1.7-1.332s1.035.222.74.518a15.507,15.507,0,0,0-1.776,2.071c-.518.814-.666.962.37,2.516A33.209,33.209,0,0,0,92.276,59.719Z" style="fill:url(#b)"/>
	<path d="M101.946,73.828a8.689,8.689,0,0,1-7.965-2.175c-1.036-1-1.838-1.433-4.507-2.178a5.568,5.568,0,0,1-3.523-3.458l6.911-7.051a16.325,16.325,0,0,0,2.155,2.365c1.867,1.855,2.563,2.132,5.142.7a9.981,9.981,0,0,0,3.811-4.177v-.007l.015-.014,1.491-1.539.015-.011a7.11,7.11,0,0,1,1.091-.849l-.044-.233L108.9,52.77v.1C113.524,57.5,108.63,72.6,101.946,73.828Z" style="fill:#6d7881;fill-rule:evenodd"/>
	<ellipse cx="113.848" cy="47.243" rx="2.436" ry="2.347" style="fill:#344554"/>
	<path d="M102.95,50.166a.961.961,0,0,1-1.3-.276.875.875,0,0,1-.148-.511c0-.138.227-.159.224-.02a.7.7,0,0,0,.666.732h0a.73.73,0,0,0,.423-.1C102.943,49.919,103.075,50.094,102.95,50.166Z" style="fill:#6d7881;fill-rule:evenodd"/>
	<path d="M117.934,57.355c-.851-1.022-2.254-1.37-3.244-2.177a5.528,5.528,0,0,1-.62-.669c-.03-.044-.062-.086-.09-.133a.013.013,0,0,1-.011-.008c-.6-.868-.542-1.674-.565-3.277a4.208,4.208,0,0,0-.25-1.323,3.067,3.067,0,0,0,2.95-.554c.09-.072-.039-.2-.129-.124a2.872,2.872,0,0,1-2.9.462,6.737,6.737,0,0,0-7.457-3.99,8.547,8.547,0,0,0,.634,3.482c.745,1.759,1.155,1.939,1.826,1.9a.757.757,0,0,1-.038,1.508,2.474,2.474,0,0,0-1.565,2.536c0,.061-.01.121-.009.184.044,2.107,3.166,4.506.9,6.39-.089.074.041.2.129.124a2.263,2.263,0,0,0,.785-2.365,10.148,10.148,0,0,0-.88-2.221c.05.056.1.111.155.166a4.135,4.135,0,0,1,.932,4.6s5.7,1.579,9.54-.9c0,0,1.118-2.37-1.826-4.56-.261-.194-.489-.37-.7-.54.341.179.7.352,1.044.562a4.61,4.61,0,0,1,2.289,4.278c-.006.113.176.113.182,0A4.738,4.738,0,0,0,117.934,57.355Z" style="fill:#344554;fill-rule:evenodd"/>
</svg>