<svg xmlns="http://www.w3.org/2000/svg" xmlns:xlink="http://www.w3.org/1999/xlink" viewBox="0 0 150 150">
    <defs>
        <linearGradient id="a" x1="-517.383" y1="1276.274" x2="-516.732" y2="1276.312" gradientTransform="translate(11300.093 -16933.923) scale(21.678 13.319)" gradientUnits="userSpaceOnUse"><stop offset="0" stop-color="#ffbeb6"/><stop offset="1" stop-color="#f2a19c"/>
        </linearGradient>

        <linearGradient id="b" x1="-434.237" y1="1404.732" x2="-434.747" y2="1404.127" gradientTransform="translate(2761.246 -8600.659) scale(6.181 6.145)" gradientUnits="userSpaceOnUse"><stop offset="0" stop-color="#282828"/><stop offset="0.232" stop-color="#282828"/>
            <stop offset="1" stop-color="#1c1c1c"/>
        </linearGradient>

        <linearGradient id="c" x1="-505.958" y1="1235.397" x2="-506.25" y2="1234.785" gradientTransform="translate(8249.781 -26309.592) scale(16.135 21.33)" xlink:href="#b"/>
        <linearGradient id="d" x1="-387.819" y1="1518.817" x2="-388.395" y2="1517.765" gradientTransform="translate(1650.966 -6305.901) scale(4.029 4.178)" xlink:href="#a"/>
    </defs>

    <circle cx="75" cy="75" r="75" style="fill:#eaecee"/>
    <path d="M29,95H61v31H29Z" style="fill:#6d7881"/>
    <path d="M45.83,126l.17.2L32.771,136.981A74.647,74.647,0,0,0,75,150c.335,0,.666-.021,1-.025V126Z" style="fill:#1475dc"/>
    <path d="M45.83,126,.075,72.032C.037,73.018,0,74.005,0,75a75.228,75.228,0,0,0,32.771,61.981L46,126.2Z" style="fill:#0d4c8f"/>
    <path d="M120.036,122.232l-2.3-6.9-6.6.1a28.368,28.368,0,0,1-7.2,4.8c-.051.022-.094.046-.144.067l-1.656-4.967h-6.6a30.7,30.7,0,0,1-7.2,4.8c-3.7,1.6-3.6,4.6-3.6,4.6l16.073-2.04a3.974,3.974,0,0,0-.673,1.94Z" style="fill:#6d7881"/>
    <path d="M111.282,65.817c-2.6,11.4-2.8,9.8-2.4,17.9.4,8-.9,5.3-1.3,13.7s.1,12.6-5.3,17.9h-6.7s-.5-25.7-.4-33c.1-5.1,1.7-10.2,2.6-14.4l4,4.6s5.1-2.7,5.9-7c.8-4.4,1.3-5.7,2.7-7.4a10.076,10.076,0,0,0,1.2-2.3A24.1,24.1,0,0,1,111.282,65.817Z" style="fill:#061526"/>
    <path d="M117.782,115.317h-6.7s-10.5-25.1-11-30.6a81.092,81.092,0,0,1,.2-13.9l1.5,1.7s5.1-2.7,5.9-7c.8-4.4,1.3-5.7,2.7-7.4a8.107,8.107,0,0,0,1-1.8c1.3-.2,2.4-.4,3.2-.6a26.1,26.1,0,0,1-.5,15.4c-4.2,12.5-1.3,11.9,0,15.7,1.4,3.8,2.1,6.1,1.8,9.6-.3,3.6,1.3,2.6,2.1,7.2C118.782,108.317,117.782,115.317,117.782,115.317Z" style="fill:#1f2c3c"/>
    <path d="M89.5,57.6a35.235,35.235,0,0,1-5,5.1c-2.1,1.5-2.3,1.4-3.5.7s-3-1.3-3.4-1.7-1.1-.2-.5,1,2.3,1.5,1.8,2.4-2.5,1.3-4.4,1.8-2.9.9-.5,2.6,4.9,2.4,9.4-1.5a25.442,25.442,0,0,1,10.9-5.7Z" style="fill:url(#a)"/>
    <path d="M65,74.6,80.3,60.7,94.2,75.9,78.9,89.8Z" style="fill:#5fb5fe"/>
    <path d="M96.1,66a21.545,21.545,0,0,0-9.5,5.1c-4.5,4-6.9,3.3-9.4,1.5-2.4-1.7-1.4-2.1.5-2.6s3.9-.9,4.4-1.8-1.2-1.1-1.8-2.3.1-1.4.5-1,2.2,1,3.4,1.7,1.5.8,3.5-.7a22.044,22.044,0,0,0,4.2-4.4Z" style="fill:#ffbeb6"/>
    <circle cx="75.7" cy="29.1" r="3.1" style="fill:url(#b)"/>
    <path d="M84.2,23.5s-4.9,2.6-6.2,4.3-1.7,3.5-1.1,5,1.8,3,1.1,5.6a6.362,6.362,0,0,0,1.3,6.1,10.439,10.439,0,0,1,4.5-3.4c4.1-1.4,7.6-2.8,9-5.7,0,0-1.5-2.4-3.7-2.7s-3.1-.8-3.1-2,.6-1.5,1-2.4c.5-.9,1.2-1.9.3-3.5S85.6,22.7,84.2,23.5Z" style="fill:url(#c)"/>
    <path d="M86.805,39.756s2.1,3.9,4.1,8.3c1.8,3.9,1.3,6-1,9l-.5.6,9.8,9.8a7.732,7.732,0,0,0,4.1-5.5c.7-4,.9-4.6,2.2-6.2s1.5-4-3-8.7-4.5-8.8-13.4-10.7" style="fill:#4d5b67"/>
    <path d="M111.305,56.256c.9-2.3,1.1-5.9-2.6-9.8-5-5.2-9.9-8.1-19.6-10.1a37.016,37.016,0,0,1,12.7,2.3c5.1,1.9,5.6,2.1,9.7,5.4a17.685,17.685,0,0,1,6.3,10.7A25.89,25.89,0,0,1,111.305,56.256Z" style="fill:#4d5b67"/>
    <path d="M87.905,40.156s5,4.8,7.4,8.9,2.1,5.2-.4,8.3a36.609,36.609,0,0,1-3.2,3.7l10.1,11.5s5.1-2.7,5.9-7c.8-4.4,1.3-5.7,2.7-7.4,1.4-1.8,3.3-6.4-1.6-11.6s-10-8.2-19.7-10.2l-.3-.1" style="fill:#6d7881"/>
    <path d="M86.81,39.67s-.8-1.3-1.8-2.8a4.875,4.875,0,0,0,1.1-.4,11.4,11.4,0,0,0,1.9-1c.3.3.7.6,1,.9C89.01,36.37,89.31,38.27,86.81,39.67Z" style="fill:url(#d)"/>
    <path d="M90.61,29.37c-.3.6-.6.5-.6.9a5.2,5.2,0,0,1-.1,3.3,3.039,3.039,0,0,1-1.2,1.3,9.186,9.186,0,0,1-2.7,1.6,3.582,3.582,0,0,1-1.1.4c-.7-1-.9-1.4-1.6-1.5a10.529,10.529,0,0,1-1.2-.1h-.1c-.1,0-.3-.1-.4-.1h-.1a1.4,1.4,0,0,1-.5-1.8c.5-1,1.2-.8,1.8-1.2a7.5,7.5,0,0,0,3.5-4.5v-.1a4.671,4.671,0,0,0,.3-1.7s2.3,2.1,3.3,2.3a.779.779,0,0,1,.7.9A.187.187,0,0,1,90.61,29.37Z" style="fill:#ffbeb5"/>
    <path d="M90.81,26.37a1.5,1.5,0,0,0-1.6-1.3,1.411,1.411,0,0,0-.9,1.8c0,.1.1.2.1.3a1.589,1.589,0,0,0-.8,1l-.1-.1a1.383,1.383,0,0,0-1.2-.3,1.67,1.67,0,0,0-1.1,2.1,2.589,2.589,0,0,0,.7,1.1,1.4,1.4,0,0,0,.9.3h.3a1.068,1.068,0,0,0,.9-.7,2.2,2.2,0,0,0,.1-1.4,1.234,1.234,0,0,0-.4-.8,2,2,0,0,1,.8-1v.1a1.769,1.769,0,0,0,.8.5c.1,0,.2.1.4.1h.2C90.61,28.07,91.01,27.17,90.81,26.37Zm-2.9,2.9a1.672,1.672,0,0,1-.1,1.2,1.114,1.114,0,0,1-1.4.6c-.1-.1-.2-.1-.3-.2a2.384,2.384,0,0,1-.6-1.1c-.2-.9.2-1.7.9-1.8h.2a.908.908,0,0,1,.7.3A1.7,1.7,0,0,1,87.91,29.27Zm1.9-1.3c-.5.1-1.1-.4-1.3-1.1a1.352,1.352,0,0,1,.8-1.6c.5-.1,1.1.4,1.3,1.1C90.71,27.17,90.41,27.87,89.81,27.97Z" style="fill:#5fb5fe"/>
</svg>