<svg xmlns="http://www.w3.org/2000/svg" xmlns:xlink="http://www.w3.org/1999/xlink" width="160px" height="160px" viewBox="0 0 160 160">
    <defs>
        <linearGradient id="a" x1="121.025" y1="65.598" x2="211.722" y2="160.395" gradientUnits="userSpaceOnUse">
            <stop offset="0.2" stop-color="#ddd"/>
            <stop offset="0.636" stop-color="#bababa"/>
        </linearGradient>
        <linearGradient id="b" x1="94.487" y1="86.563" x2="231.849" y2="86.563" gradientUnits="userSpaceOnUse">
            <stop offset="0" stop-color="#fff"/>
            <stop offset="0.565" stop-color="#eaecee"/>
        </linearGradient>
        <linearGradient id="c" x1="67.203" y1="90.023" x2="56.031" y2="66.62" gradientUnits="userSpaceOnUse">
            <stop offset="0" stop-color="#ffbeb6"/>
            <stop offset="1" stop-color="#f2a19c"/>
        </linearGradient>
        <linearGradient id="d" x1="61.647" y1="102" x2="100" y2="102" xlink:href="#c"/>
        <linearGradient id="e" x1="40.749" y1="83.029" x2="46.786" y2="76.992" xlink:href="#c"/>
        <linearGradient id="f" x1="48.45" y1="73.087" x2="54.203" y2="54.295" gradientUnits="userSpaceOnUse">
            <stop offset="0.194" stop-color="#766049"/>
            <stop offset="0.959" stop-color="#282828"/>
        </linearGradient>
    </defs>

    <circle cx="80" cy="80" r="80" style="fill:#eaecee"/>
    <path d="M136.018,137.094A79.979,79.979,0,0,0,148.2,38.177L92.487,88.535Z" style="fill:url(#a)"/>
    <path d="M138,135.07a79.95,79.95,0,0,0,10.125-97.014L94.487,86.535Z" style="fill:url(#b)"/>
    <path d="M32.036,119l-18.429,5.641a80.072,80.072,0,0,0,48.327,33.285c-.506-.694-1.052-1.389-1.651-2.078C52.332,146.688,32.036,119,32.036,119Z" style="fill:#061526"/>
    <path d="M37.175,124.042c.1-.029.21-.054.313-.083.2-.048.406-.107.612-.16q.948-.255,1.924-.539l3.634-39.983a1.218,1.218,0,0,1,.107-.487c-1.264-2.1-17.886.763-18.8,1.355-.079.054-.162.077-.24.131-.24.16-.48.3-.725.465-7.52,5.213-7.672,8.664-11.912,11.848-2.232,1.68-5.628,3.608-8.4,7.476a79.658,79.658,0,0,0,11.3,22.531C20.535,127.013,27.792,126.484,37.175,124.042Z" style="fill:#4d5b67"/>
    <path d="M43.982,79S46.9,97.21,64.659,99.911L71,118.644s-3.261,4.143-12.5,1.441-9.964-.36-15.581-4.143S24.91,96.508,37.357,79.116Z" style="fill:#4d5b67"/>
    <path d="M68.821,74.3c-3.177-5.976-2.811-9.375-5.011-11.836s-4.155-1.289-6.11-.352-2.2,1.875-.856,3.164,3.544,2.93,3.91,4.1-1.71-.469-3.421-.234.733,1.992,2.322,2.343,2.688.7,4.522,5.626.238,23.423.238,23.423l-.92,2.785,3.094,1.254L76.031,107C79.7,97.742,72,80.281,68.821,74.3Z" style="fill:url(#c)"/>
    <path d="M76.606,109.257c-1.483-5.961-4.663-9.045-14.411-6.167-7.915,2.337-38.042,15.783-49.1,20.759a80.405,80.405,0,0,0,14.449,16.528c.177-.029.346-.048.526-.082,16.106-3.083,24.159-9.044,24.159-9.044s-2.543,4.933-1.059,10.072S48.419,147.9,48,152.011c-.045.39-.09.815-.132,1.252a79.565,79.565,0,0,0,27.149,6.567C75.213,156.874,78.036,115.007,76.606,109.257Z" style="fill:#1f2c3c"/>
    <path d="M97.641,78c-.821-.118-.474,2.676-3.3,5.117-2.654,2.294-4.152,3.572-4.814,5.65l.017-.113a9.27,9.27,0,0,0-1.179-2.546c-.75-1.018-1.821-.127-1.821-.127.861.93,1.663,4.573,2.034,6.471-.648,1.185-2.034,2.9-5.181,6.014-6.821,6.741-21.755,9.373-21.755,9.373L66.052,126c8.343-4.411,21.453-23.449,24.158-25.773s7.4-2.667,5.884-8.14,2.241-6.516,3.536-9.308A3.433,3.433,0,0,0,97.641,78Z" style="fill:url(#d)"/>
    <path d="M49.382,79s-4.36,3.391-5.1,6L38,80.28,45.085,75Z" style="fill:url(#e)"/>
    <path d="M69,131.357s-5.937,6.128-13.436,2.489-7.114-6.069-11.318-6.98c-1.777-.382-4.687-.534-7.247-2.013a2.513,2.513,0,0,1-.222-.127.5.5,0,0,1-.059-.034c-3.372-2.1-6.951-5.623-9.625-11.652-3.6-8.136-3.269-22.236-2.831-28.466.079-.054.163-.1.242-.157.915-.6,1.821-1.127,2.7-1.592a35.078,35.078,0,0,1,7.6-3.1c.926-.24,1.009-.265,1.861-.48l.414-.1c.379-.1.536-.142.536-.142a7.06,7.06,0,0,1,6.041,3.419,8.835,8.835,0,0,1,.832,1.724,86.429,86.429,0,0,0,3.131,15.344c2.743,9.821,13.977,8.175,13.977,8.175Z" style="fill:#6d7881"/>
    <path d="M59.627,76.459s-3.51,4.473-8.009,3.365A11.039,11.039,0,0,1,46,76.735c2.842-.943,5.587-3.547,6.089-5.75,0,0,2.9,3.315,4.513-.985a9.8,9.8,0,0,0,5.093.107,30.036,30.036,0,0,0,.278,5.386C62.3,77.239,59.627,76.459,59.627,76.459Z" style="fill:#ffbeb6"/>
    <path d="M59,78.874a1.156,1.156,0,0,0-1.324-.864,1.272,1.272,0,0,0-.624.25c-.133.1.027.3.162.2a1,1,0,0,1,1.264.016.738.738,0,0,1,.242.421C58.748,79.048,59.028,79.028,59,78.874Z" style="fill:#344554"/>
    <path d="M66.771,63.1c-.074-.271-.5-.14-.426.131a5.524,5.524,0,0,1-2.7,6.327,6.384,6.384,0,0,1-3.625.809c2.161-.039,4.826-.821,5.819-4.159,1.656-5.567-4.253-6.215-5.616-3.978A5.751,5.751,0,0,0,57.5,54.835c-5.076-2.886-4.933,2.524-4.36,3.9a4.1,4.1,0,0,0-4.122-2.047c-3.108.18-1.935,2.819-1.935,2.819S41,56.023,37.279,61.569c-2.457,3.663-.205,5.76,1.9,6.612-2.11-.326-3.826-1.584-3.731-4.259.01-.281-.436-.26-.446.02-.138,3.892,3.3,5.053,6.53,4.672-.673.374-3.871,2.436-1.041,6.556,3.147,4.581,10.959-.426,11.846-4.23,0,0,2.921,3.263,4.558-.942a7.575,7.575,0,0,0,7.428-.346A5.9,5.9,0,0,0,66.771,63.1Z" style="fill:url(#f)"/>
    <rect width="160" height="160" style="fill:none"/>

</svg>