<svg xmlns="http://www.w3.org/2000/svg" viewBox="0 0 48 48">

	<rect width="48" height="48" rx="2" style="fill:#061526"/>
	<path d="M14.177,32.114a3.364,3.364,0,0,1-3.319-3.391V18.615h-.132A1.777,1.777,0,0,0,9,20.379V32.114a1.777,1.777,0,0,0,1.726,1.764h1.858v3.663A.44.44,0,0,0,13,38a.43.43,0,0,0,.311-.119l3.85-4H27.186a1.5,1.5,0,0,0,.929-.271l-1.394-1.493Z" style="fill:#1475dc"/>
	<path d="M36.212,10H14.841a2.848,2.848,0,0,0-2.854,2.845h0v15.2a2.95,2.95,0,0,0,2.854,2.917H27.584l4.779,4.952a1.212,1.212,0,0,0,.8.339,1.187,1.187,0,0,0,1.2-1.152V30.961h1.858A2.852,2.852,0,0,0,39,28.044V12.85A2.832,2.832,0,0,0,36.212,10Zm-9.1,4.8c1.368,0,1.686.7,1.71,1.218,0,.772-.488,1.592-2.2,1.592h-2.2l.589-2.81Zm-5.667,0c1.368,0,1.71.7,1.71,1.218,0,.772-.488,1.592-2.2,1.592h-2.2l.613-2.81ZM32.29,17.248c1.344,0,1.685.7,1.71,1.219,0,.77-.489,1.591-2.2,1.591H29.6l.586-2.81Zm-6,1.686c1.369,0,1.686.7,1.686,1.219,0,.771-.489,1.592-2.2,1.592h-2.2l.611-2.811Zm-5.6,0c1.368,0,1.71.7,1.71,1.219,0,.771-.489,1.592-2.2,1.592H18l.586-2.811Zm10.769,2.615c1.369,0,1.686.7,1.71,1.22,0,.77-.488,1.591-2.2,1.591h-2.2l.587-2.811Zm-5.911,1.687c1.368,0,1.686.7,1.686,1.219,0,.772-.489,1.591-2.2,1.591h-2.2l.61-2.81Z" style="fill:#fff;fill-rule:evenodd"/>

</svg>