<svg xmlns="http://www.w3.org/2000/svg" viewBox="0 0 64 64">

	<rect width="64" height="64" style="fill:none"/>
	<path d="M33.854,11.49l15.658,8.846A2.9,2.9,0,0,1,51,22.856V34.247l-4.55,2.572L33.406,44.173a3.039,3.039,0,0,1-2.975,0l-2.677-1.508V37.442l2.678,1.508a3.038,3.038,0,0,0,2.973,0L46.44,31.605V25.482a2.9,2.9,0,0,0-1.494-2.523L27.308,13.043l2.777-1.553A3.871,3.871,0,0,1,33.854,11.49Zm-9.343,3.146,1.814.99,2.807,1.583L42.1,24.531a2.9,2.9,0,0,1,1.489,2.521v3.009l-4.631,2.612V29.7a2.9,2.9,0,0,0-1.484-2.518L24.521,19.841,19.1,22.954a2.9,2.9,0,0,0-1.469,2.51V45.3l-2.756-1.573A3.665,3.665,0,0,1,13,40.549V22.923a2.9,2.9,0,0,1,1.471-2.511L19.9,17.3l3.384-1.979Z" style="fill:#FFFFFF;fill-rule:evenodd"/>
	<path d="M25.069,44.348V29.7a2.9,2.9,0,0,1,1.489-2.521l2.665-1.5-4.631-2.612-2.665,1.505a2.9,2.9,0,0,0-1.489,2.521V46.941l4.631,2.632,5.37,3.036a3.039,3.039,0,0,0,2.98,0L49.1,43.765A3.675,3.675,0,0,0,51,40.519V37.4L33.4,47.317a3.037,3.037,0,0,1-2.955.011Z" style="fill:#3ccf81;fill-rule:evenodd"/>

</svg>