<svg xmlns="http://www.w3.org/2000/svg" viewBox="0 0 64 64">

	<rect width="64" height="64" style="fill:none"/>
	<path d="M38.451,11a.748.748,0,0,1,.522.213l3.021,2.965a.741.741,0,0,1-.523,1.269H35.845a2.224,2.224,0,1,1,0-4.447Zm8.805,9.388a.743.743,0,0,1,.744.741v2.965a.743.743,0,0,1-.744.741H35.845a2.224,2.224,0,1,1,0-4.447Zm0,9.388a.743.743,0,0,1,.744.742v2.964a.743.743,0,0,1-.744.742H35.845a2.224,2.224,0,1,1,0-4.448ZM45.4,39.165a.743.743,0,0,1,.745.741v2.965a.743.743,0,0,1-.745.741h-9.55a2.224,2.224,0,1,1,0-4.447Zm-4.349,9.388a.74.74,0,0,1,.537,1.254l-2.856,2.965A.743.743,0,0,1,38.19,53H35.845a2.224,2.224,0,1,1,0-4.447Z" style="fill:#838d96;fill-rule:evenodd"/>
	<path d="M26.915,23.353a3.212,3.212,0,1,1-3.225,3.212A3.219,3.219,0,0,1,26.915,23.353ZM30.388,11a.743.743,0,0,1,.744.741v2.965a.743.743,0,0,1-.744.741H28.549a.744.744,0,0,0-.524.215l-7.34,7.259a.739.739,0,0,0-.22.526v8.689a.738.738,0,0,0,.22.526l1.221,1.207.039.04a3.1,3.1,0,0,1,.882,2.164v6.5a.739.739,0,0,0,.22.526l5.3,5.242a.747.747,0,0,0,.525.215h1.516a.743.743,0,0,1,.744.741v2.965a.743.743,0,0,1-.744.741H27.954a3.128,3.128,0,0,1-2.143-.9l-6.528-6.456-.04-.04a3.1,3.1,0,0,1-.881-2.164v-6.8l-1.441-1.425-.039-.04A3.1,3.1,0,0,1,16,33V22.524a3.1,3.1,0,0,1,.92-2.148L25.489,11.9l.041-.04A3.133,3.133,0,0,1,27.69,11Z" style="fill:#f48230;fill-rule:evenodd"/>

</svg>