<svg xmlns="http://www.w3.org/2000/svg" viewBox="0 0 48 48">

	<rect width="48" height="48" rx="2" style="fill:#061526"/>
	<path d="M24.023,37.994c-.1,0-.1-.1-.2-.1A6.885,6.885,0,0,1,20.5,33.881a8.34,8.34,0,0,1,0-5.418c.2-.4.4-.9.6-1.3a6.633,6.633,0,0,0-.1-6.421,6.223,6.223,0,0,0-3.92-3.01,6.5,6.5,0,0,0-4.925.7,6.926,6.926,0,0,0-3.116,6.621h0a15.276,15.276,0,0,0,1.91,6.622A14.4,14.4,0,0,0,23.721,39h.1c.2,0,.3-.1.4-.3A.954.954,0,0,0,24.023,37.994Z" style="fill:#d52c16"/>
	<path d="M36.989,16.625h0a.553.553,0,0,0-.5-.3.474.474,0,0,0-.5.5v.2a7.343,7.343,0,0,1-1.709,4.916,7.846,7.846,0,0,1-4.624,2.709,6.663,6.663,0,0,1-1.407.1,6.72,6.72,0,0,0-5.428,3.411,6.26,6.26,0,0,0-.6,5.017,6.406,6.406,0,0,0,3.016,4.013,6.563,6.563,0,0,0,7.237-.5h0a14.727,14.727,0,0,0,4.623-5.016A15.422,15.422,0,0,0,36.989,16.625Zm-25.028.6h0a.31.31,0,0,1,.2-.1,6.835,6.835,0,0,1,5.025-.9,7.851,7.851,0,0,1,4.624,2.709,8.382,8.382,0,0,1,.8,1.2,6.453,6.453,0,0,0,10.052,1.2,6.611,6.611,0,0,0,1.91-4.615,6.823,6.823,0,0,0-4.021-6.12h0A13.8,13.8,0,0,0,23.922,9a14.4,14.4,0,0,0-12.665,7.524v.1a.448.448,0,0,0,0,.5A.884.884,0,0,0,11.961,17.227Z" style="fill:#FFFFFF"/>

</svg>