<svg xmlns="http://www.w3.org/2000/svg" viewBox="0 0 64 64">

	<rect width="64" height="64" style="fill:none"/>
	<path d="M32.062,21a3,3,0,0,1,0,6,2.941,2.941,0,0,1-1.81-.62,3.012,3.012,0,0,1,.866-5.226A2.951,2.951,0,0,1,32.062,21Zm0-9A11.935,11.935,0,0,1,43.908,22.923a2.23,2.23,0,0,1-4.438.441l0-.041a7.461,7.461,0,0,0-7.4-6.823,7.365,7.365,0,0,0-2.36.385,7.534,7.534,0,0,0-3.081,12.226,7.256,7.256,0,0,0-2.057,4.2l-.075-.06a12.05,12.05,0,0,1,3.8-20.636A11.8,11.8,0,0,1,32.062,12Zm-.311,18a4.25,4.25,0,1,1-4.212,4.25A4.232,4.232,0,0,1,31.751,30Zm-8.857,7a2.976,2.976,0,0,1,2.775,1.92,3.019,3.019,0,0,1,.2,1.08,2.986,2.986,0,0,1-2.973,3,2.941,2.941,0,0,1-1.81-.62,3.012,3.012,0,0,1,.866-5.226A2.951,2.951,0,0,1,22.894,37Zm18.212,0a3,3,0,0,1,0,6,2.943,2.943,0,0,1-1.81-.62,3.013,3.013,0,0,1,.867-5.226A2.94,2.94,0,0,1,41.106,37Zm0-9a12,12,0,0,1,0,24,11.772,11.772,0,0,1-4.9-1.064,2.258,2.258,0,0,1-1.111-2.978,2.222,2.222,0,0,1,2.912-1.139l.039.018a7.346,7.346,0,0,0,3.062.663,7.5,7.5,0,0,0,0-15,7.373,7.373,0,0,0-2.357.384,7.254,7.254,0,0,0-2.193-3.969c.049-.024.1-.046.15-.067.207-.082.415-.159.626-.231A11.8,11.8,0,0,1,41.106,28Z" style="fill:#FFFFFF"/>
	<path d="M19.094,30.754a2.264,2.264,0,0,1-.482,3.114l-.063.045a7.542,7.542,0,0,0-.179,12.039A7.349,7.349,0,0,0,22.894,47.5a7.457,7.457,0,0,0,7.315-6.154,7.166,7.166,0,0,0,4.55-.538c0,.035,0,.071-.006.107A11.938,11.938,0,0,1,22.894,52a11.787,11.787,0,0,1-7.241-2.479,12.067,12.067,0,0,1,.194-19.189l.136-.1A2.218,2.218,0,0,1,19.094,30.754Z" style="fill:#935f9e"/>

</svg>