<svg xmlns="http://www.w3.org/2000/svg" viewBox="0 0 48 48">

	<rect width="48" height="48" rx="2" style="fill:#061526"/>
	<path d="M24.025,13.441c-3.22,0-7.483,2.951-7.483,2.951s4.087-6.061,4.716-6.843a3.353,3.353,0,0,1,2.767-1.322,3.277,3.277,0,0,1,2.728,1.322c.629.777,4.735,6.843,4.735,6.843s-4.244-2.951-7.466-2.951ZM16.268,31.4s-6.141-4.038-6.929-4.659A3.29,3.29,0,0,1,8,24.01a3.218,3.218,0,0,1,1.338-2.7c.788-.621,6.926-4.678,6.926-4.678s-2.986,4.193-2.986,7.374S16.265,31.4,16.265,31.4Zm22.4-4.649c-.787.622-6.926,4.679-6.926,4.679s2.987-4.193,2.987-7.373-2.987-7.394-2.987-7.394,6.139,4.037,6.926,4.66A3.285,3.285,0,0,1,40,24.058a3.211,3.211,0,0,1-1.338,2.694Z" style="fill:#fff"/>
	<path d="M20.73,38.911a3.305,3.305,0,0,0,2.739,1.313,3.384,3.384,0,0,0,2.778-1.313c.632-.772,4.733-6.8,4.733-6.8s-4.28,2.93-7.511,2.93-7.493-2.93-7.493-2.93,4.122,6.026,4.752,6.8Z" style="fill:#5fb5fe"/>
	<rect width="48" height="48" style="fill:none"/>

</svg>