<svg xmlns="http://www.w3.org/2000/svg" viewBox="0 0 64 64">

	<rect width="64" height="64" style="fill:none"/>
	<path d="M32,27.805a4.2,4.2,0,1,1-4.2,4.2A4.2,4.2,0,0,1,32,27.805ZM43.049,14.149a2.223,2.223,0,0,1-2.3,3.805l-.038-.022A16.556,16.556,0,0,0,17.336,39.68l.081.153a2.223,2.223,0,1,1-3.919,2.1A21,21,0,0,1,43.049,14.149ZM42.138,35.01a2.224,2.224,0,0,1,.886,3.017,12.695,12.695,0,0,1-4.823,4.92,2.223,2.223,0,0,1-2.241-3.84l.035-.021a8.235,8.235,0,0,0,3.076-3.1l.051-.092A2.223,2.223,0,0,1,42.138,35.01Zm6.687-15.551a20.976,20.976,0,0,1-30.59,28.367,2.223,2.223,0,0,1,2.888-3.381l.033.028A16.532,16.532,0,0,0,45.35,22.237l-.086-.117a2.223,2.223,0,1,1,3.561-2.661Z" style="fill:#838d96"/>
	<path d="M32.02,19.383a12.617,12.617,0,0,1,12.565,11.5,2.222,2.222,0,0,1-4.423.433l0-.041a8.17,8.17,0,1,0-9,8.863l.125.012a2.224,2.224,0,0,1-.4,4.43A12.622,12.622,0,0,1,32.02,19.383Z" style="fill:#0f92cb"/>

</svg>