<svg xmlns="http://www.w3.org/2000/svg" viewBox="0 0 64 64">

	<rect width="64" height="64" style="fill:none"/>
	<path d="M36.076,46.29,33.946,49.9a2.215,2.215,0,0,1-1.9,1.1h-7.8a5.1,5.1,0,0,1-4.39-2.534L11.734,34.7a5.328,5.328,0,0,1,0-5.4L19.85,15.534A5.1,5.1,0,0,1,24.24,13h2.5L15.685,31.73a.534.534,0,0,0-.014.513l.014.027L23.8,46.037a.509.509,0,0,0,.411.252H36.076Z" style="fill:#00a9d8"/>
	<path d="M35.335,22.09a2.273,2.273,0,0,1,0,4.545h-6.67a2.273,2.273,0,0,1,0-4.545Zm4.324,7.574a2.273,2.273,0,0,1,0,4.545H24.341a2.273,2.273,0,0,1,0-4.545Zm-4.324,7.575a2.273,2.273,0,0,1,0,4.545h-6.67a2.273,2.273,0,0,1,0-4.545ZM39.76,13a5.1,5.1,0,0,1,4.39,2.534L52.266,29.3a5.328,5.328,0,0,1,0,5.4L44.15,48.466A5.1,5.1,0,0,1,39.76,51H37.265l11.05-18.73a.534.534,0,0,0,.014-.513l-.014-.027L40.2,17.963a.509.509,0,0,0-.411-.252H27.924l2.13-3.611a2.215,2.215,0,0,1,1.9-1.1Z" style="fill:#FFFFFF"/>

</svg>