<svg xmlns="http://www.w3.org/2000/svg" viewBox="0 0 64 64">

	<rect width="64" height="64" style="fill:none"/>
	<path d="M33.9,38.818a3.72,3.72,0,0,0-3.746-.028l-.054.032-15.679,9.3.762,1.333a3,3,0,0,0,4.1,1.139l.043-.025,11.936-7.082a1.458,1.458,0,0,1,1.489,0l12,7.095a3,3,0,0,0,4.113-1.077l.026-.044.76-1.334Z" style="fill:#ed3449"/>
	<path d="M51.832,44.188,36.111,34.906a3.868,3.868,0,0,1-1.887-3.277V13h1.514a3.073,3.073,0,0,1,3.057,3.076V30.307a1.514,1.514,0,0,0,.742,1.308L51.49,38.637a3.117,3.117,0,0,1,1.126,4.172l-.025.044Zm-39.664,0-.759-1.335-.025-.044a3.117,3.117,0,0,1,1.126-4.172l11.953-7.022a1.514,1.514,0,0,0,.742-1.308V16.076A3.073,3.073,0,0,1,28.262,13h1.514V31.629a3.868,3.868,0,0,1-1.887,3.277Z" style="fill:#FFFFFF"/>

</svg>