<svg xmlns="http://www.w3.org/2000/svg" viewBox="0 0 24 24"><path d="M0 0h24v24H0z" fill="none"/><path d="M12 2a10 10 0 1010 10A10 10 0 0012 2zm3.61 6.34a1.93 1.93 0 11-1.93 1.93 1.925 1.925 0 011.93-1.93zm-6-1.58a2.36 2.36 0 11-2.36 2.36 2.364 2.364 0 012.36-2.36zm0 9.13v3.75a8.007 8.007 0 01-5.14-4.96c1.05-1.12 3.67-1.69 5.14-1.69a10.172 10.172 0 011.9.22 3.022 3.022 0 00-1.9 2.68zM12 20a6.851 6.851 0 01-.79-.04v-4.07c0-1.42 2.94-2.13 4.4-2.13a7.089 7.089 0 013.84 1.15A8.019 8.019 0 0112 20z"/></svg>