<svg xmlns="http://www.w3.org/2000/svg" viewBox="0 0 24 24">

    <path d="M0 0h24v24H0z" fill="none"/>
    <path d="M13.941,18.769l-1.014,1.71a1.055,1.055,0,0,1-.9.521H8.308a2.433,2.433,0,0,1-2.091-1.2L2.35,13.279a2.51,2.51,0,0,1,0-2.558L6.215,4.2A2.43,2.43,0,0,1,8.305,3h1.19L4.231,11.872a.25.25,0,0,0-.006.243l.006.013L8.1,18.649a.242.242,0,0,0,.2.119h5.65ZM13.588,7.306a1.077,1.077,0,0,1,0,2.153H10.412a1.077,1.077,0,0,1,0-2.153Zm2.059,3.587a1.077,1.077,0,0,1,0,2.153H8.353a1.077,1.077,0,0,1,0-2.153Zm-2.059,3.589a1.077,1.077,0,0,1,0,2.153H10.412a1.077,1.077,0,0,1,0-2.153ZM15.7,3a2.43,2.43,0,0,1,2.09,1.2l3.865,6.521a2.51,2.51,0,0,1,0,2.558L17.785,19.8A2.43,2.43,0,0,1,15.7,21H14.507l5.262-8.872a.25.25,0,0,0,.006-.243l-.006-.013L15.905,5.351a.242.242,0,0,0-.2-.119h-5.65l1.014-1.711a1.055,1.055,0,0,1,.9-.521Z"/>

</svg>