<svg xmlns="http://www.w3.org/2000/svg" viewBox="0 0 24 24" fill="#4D5B67" width="24px" height="24px">

	<path d="M0 0h24v24H0z" fill="none"/>
	<path d="M12,9.5A2.5,2.5,0,1,1,9.5,12l.005-.164A2.5,2.5,0,0,1,12,9.5Zm0-3.75a6.25,6.25,0,0,1,0,12.5.625.625,0,0,1-.092-1.243L12,17a5,5,0,1,0-4.995-5.217L7,12a.625.625,0,0,1-1.244.092L5.75,12A6.25,6.25,0,0,1,12,5.75ZM12,2a1.137,1.137,0,0,1,1,1,1.176,1.176,0,0,1-.894,1H12a7.785,7.785,0,0,0-8,8,7.785,7.785,0,0,0,8,8,7.777,7.777,0,0,0,8-7.746V12a1.137,1.137,0,0,1,1-1,1,1,0,0,1,1,.894V12A10,10,0,1,1,11.72,2Z"/>

</svg>