<svg xmlns="http://www.w3.org/2000/svg" viewBox="0 0 24 24" fill="#4D5B67" width="24px" height="24px">

	<path d="M0 0h24v24H0z" fill="none"/>
	<path d="M7,8.25a2,2,0,1,1-2-2A2,2,0,0,1,7,8.25Zm14,0a2,2,0,1,1-2-2A2,2,0,0,1,21,8.25ZM14,19a2,2,0,1,1-2-2A2,2,0,0,1,14,19Zm4.982-5.451a1.987,1.987,0,0,0-1.491.679l-2.673-1.416a2.624,2.624,0,0,0,.2-.987h0A2.864,2.864,0,0,0,12.5,9.042l-.016,0v-2.1a1.991,1.991,0,1,0-.9.018V9.046a2.867,2.867,0,0,0-2.539,2.783h0a2.684,2.684,0,0,0,.207,1.007l-.007-.019L6.619,14.207a2.085,2.085,0,1,0,.417.758l2.647-1.4a3.054,3.054,0,0,0,4.7.005l0-.006,2.689,1.423a1.98,1.98,0,0,0-.09.563,2,2,0,1,0,2-2Z"/>

</svg>