<svg xmlns="http://www.w3.org/2000/svg" viewBox="0 0 24 24" fill="#4D5B67" width="24px" height="24px">

	<path d="M0 0h24v24H0z" fill="none"/>
	<path d="M12,3.65a1.814,1.814,0,0,0-1.285.531L4.181,10.718h0l-.1.114a1.819,1.819,0,0,0,.1,2.449l2.862,2.862.55-.55c-1.218-1.512-1.843-2.669-1.112-3.4.619-.619,1.556-.031,3.8,1.487.35.238.762.519,1.162.775l-.625-.794c-1.525-1.994-2.475-3.355-1.744-4.087s1.932.056,4.163,1.631c.281.2.625.444.956.669-.263-.4-.556-.832-.8-1.188-1.531-2.231-2.156-3.274-1.531-3.9.793-.794,2.075.006,3.4,1.131l.887-.874L13.287,4.181A1.813,1.813,0,0,0,12,3.65Zm5.07,4.331L15.317,9.737l-.455-.4a12.081,12.081,0,0,0-1.614-1.257c.344.544.863,1.306,1.251,1.875,1.374,2.049,2.068,3.062,1.43,3.7s-1.587-.031-3.462-1.356c-.562-.4-1.368-.982-1.993-1.338.375.587.975,1.369,1.387,1.912,1.4,1.831,2.076,2.781,1.451,3.4s-1.557.031-3.8-1.488c-.507-.343-1.175-.793-1.7-1.112l.032.051a13.962,13.962,0,0,0,1.143,1.487l.4.462L7.974,17.08l2.738,2.738a1.822,1.822,0,0,0,2.569,0l6.524-6.531.011-.006.1-.114a1.82,1.82,0,0,0-.1-2.442ZM12,2a3.46,3.46,0,0,1,2.45,1.013L20.987,9.55a3.469,3.469,0,0,1,0,4.9L14.45,20.987a3.469,3.469,0,0,1-4.9,0L3.013,14.45a3.469,3.469,0,0,1,0-4.9L9.55,3.013A3.46,3.46,0,0,1,12,2Z"/>

</svg>