<svg xmlns="http://www.w3.org/2000/svg" viewBox="0 0 24 24" fill="#4D5B67" width="24px" height="24px">

	<path d="M0 0h24v24H0z" fill="none"/>
	<path d="M18.685,3.494,12.5,2.053l-.01,0a2.379,2.379,0,0,0-.98,0L5.315,3.494A2.19,2.19,0,0,0,3.5,5.606V15.89a2.111,2.111,0,0,0,.908,1.723l0,.007L10.7,21.613l.028.018.033.021.062.039h0a2.373,2.373,0,0,0,2.342,0h.005L19.465,17.7l.073-.047A2.119,2.119,0,0,0,20.5,15.89V5.606A2.191,2.191,0,0,0,18.685,3.494ZM10.554,16.731,6.387,12.565,7.562,11.39l2.992,2.983,6.325-6.325,1.175,1.183Z"/>

</svg>