<svg xmlns="http://www.w3.org/2000/svg" viewBox="0 0 24 24"><path d="M0 0h24v24H0z" fill="none"/><path d="M12,2 C14.7606452,2 17.2593548,3.11806452 19.0690323,4.92645161 C20.8787097,6.73483871 21.9987097,9.23419355 22,11.9948387 L22,11.9948387 C22,17.5225806 17.5225806,22 12,22 C6.47741935,22 2,17.5225806 2,12 C2,6.47741935 6.47741935,2 12,2 Z M12.0064516,3.83290323 C7.49806452,3.83290323 3.84387097,7.48774194 3.84387097,11.9954839 C3.84387097,16.5012903 7.49483871,20.1541935 12,20.1580645 L12.0006452,20.1580645 C16.5148387,20.1580645 20.1690323,16.5032258 20.1690323,11.9954839 L20.1690323,11.9954839 L20.1652906,11.7459145 C20.0333988,7.35300943 16.4313501,3.83290323 12.0064516,3.83290323 Z M12.0002332,15.4415548 C12.5603166,15.4415548 13.0073325,15.8902803 13.0073325,16.4438113 L13.0073325,16.6227435 C13.0073325,17.1725887 12.5564388,17.625 12.0002332,17.625 C11.4401499,17.625 10.993134,17.1762745 10.993134,16.6227435 L10.993134,16.4438113 C10.993134,15.893966 11.4440277,15.4415548 12.0002332,15.4415548 Z M12.0093516,6.375 C12.6011012,6.375 13.0733908,6.85210589 13.0733908,7.44064584 L13.0733908,12.9733504 C13.0733908,13.5595789 12.5970042,14.0389962 12.0093516,14.0389962 C11.417602,14.0389962 10.9453125,13.5618903 10.9453125,12.9733504 L10.9453125,7.44064584 C10.9453125,6.85441729 11.4216991,6.375 12.0093516,6.375 Z"/></svg>