<svg xmlns="http://www.w3.org/2000/svg" viewBox="0 0 24 24"><path d="M0 0h24v24H0z" fill="none"/><path d="M12.9083203,2.2316279 C13.2629862,2.42373573 13.5524458,2.72367842 13.7378393,3.09118905 L21.7764676,19.0263782 C22.2782298,20.0210349 21.9068415,21.2488534 20.9469486,21.7687876 C20.6665418,21.9206724 20.3548336,22 20.0384278,22 L3.9611712,22 C2.87804625,22 2,21.0901541 2,19.9678024 C2,19.6399375 2.07655509,19.3169404 2.22313138,19.0263782 L10.2617597,3.09118905 C10.7635219,2.09653235 11.9484274,1.71169372 12.9083203,2.2316279 Z M11.9997995,4.08637545 L4.00879048,19.9271677 L4.00237918,19.9456421 L3.99873406,19.9894825 C3.99718418,19.9958266 3.99375188,19.9983546 3.98617266,19.9993562 L19.9972699,20 L19.9990749,19.9541646 C19.997749,19.9451195 19.9951989,19.9358709 19.9908085,19.9271677 L11.9997995,4.08637545 Z M12,16.5 C12.5561352,16.5 13,16.9162583 13,17.429739 L13,17.570261 C13,18.0855987 12.5522847,18.5 12,18.5 C11.4438648,18.5 11,18.0837417 11,17.570261 L11,17.429739 C11,16.9144013 11.4477153,16.5 12,16.5 Z M12,8.5 C12.5561352,8.5 13,8.92338907 13,9.44566595 L13,14.304334 C13,14.8277573 12.5522847,15.25 12,15.25 C11.4438648,15.25 11,14.8266109 11,14.304334 L11,9.44566595 C11,8.92224273 11.4477153,8.5 12,8.5 Z"/></svg>